<?xml version="1.0" encoding="UTF-8" standalone="no" ?>
<!DOCTYPE svg PUBLIC "-//W3C//DTD SVG 1.1//EN" "http://www.w3.org/Graphics/SVG/1.1/DTD/svg11.dtd">
<svg xmlns="http://www.w3.org/2000/svg" xmlns:xlink="http://www.w3.org/1999/xlink" version="1.1" width="1080" height="1080" viewBox="0 0 1080 1080" xml:space="preserve">
<desc>Created with Fabric.js 5.2.4</desc>
<defs>
</defs>
<g transform="matrix(1 0 0 1 540 540)" id="a48d89d9-f7f6-4fc6-990d-558781dcef65"  >
</g>
<g transform="matrix(1 0 0 1 540 540)" id="7866ad49-ee75-470a-842f-a43620f3ae79"  >
<rect style="stroke: none; stroke-width: 1; stroke-dasharray: none; stroke-linecap: butt; stroke-dashoffset: 0; stroke-linejoin: miter; stroke-miterlimit: 4; fill: rgb(255,255,255); fill-rule: nonzero; opacity: 1; visibility: hidden;" vector-effect="non-scaling-stroke"  x="-540" y="-540" rx="0" ry="0" width="1080" height="1080" />
</g>
<g transform="matrix(1 0 0 1 528.04 520.27)"  >
<path style="stroke: none; stroke-width: 1; stroke-dasharray: none; stroke-linecap: butt; stroke-dashoffset: 0; stroke-linejoin: miter; stroke-miterlimit: 4; fill: rgb(20,20,19); fill-rule: nonzero; opacity: 1;" vector-effect="non-scaling-stroke"  transform=" translate(-389.04, -381.27)" d="M 561.028076 560.194824 C 561.00061 563.443665 560.96283 566.692505 560.947327 569.941406 C 560.864807 587.186035 560.751892 604.430603 560.726013 621.675293 C 560.715088 628.962341 561.028687 636.251526 560.926392 643.53595 C 560.873047 647.338806 560.441162 651.171326 559.745361 654.909546 C 559.525574 656.090454 558.085144 657.380249 556.883545 657.990906 C 543.223816 664.933655 529.529175 671.809875 515.756287 678.52417 C 514.332825 679.21814 512.046631 679.380615 510.66684 678.724792 C 501.818726 674.519226 493.111969 670.016296 484.559998 665.326782 C 491.048828 667.111633 497.339874 669.169983 503.62262 671.253479 C 507.960205 672.691895 509.768341 671.694214 509.950012 667.321838 C 510.688324 649.548767 511.318024 631.771179 511.989807 613.530884 C 511.958466 608.664734 511.925079 604.263 511.889221 599.4021 C 511.834229 593.257751 511.781647 587.572632 511.760864 581.427185 C 511.762665 568.637817 511.732727 556.308777 511.755554 543.515259 C 511.863617 529.922852 511.973785 516.794983 511.96402 503.667267 C 511.933105 462.121307 511.857361 420.575378 511.848999 378.674133 C 511.783417 374.430603 510.155365 374.723022 507.514069 376.940643 C 502.08371 379.606354 497.000061 382.189331 491.567169 384.866486 C 483.14267 388.783386 475.067383 392.60611 466.662323 396.606567 C 451.871857 404.125671 437.411163 411.46701 422.590302 418.86264 C 411.152374 424.283966 400.074646 429.65097 388.997772 434.548218 C 388.998993 418.098328 388.779785 402.113586 389.11441 386.140503 C 389.237701 380.255737 386.845764 376.872589 381.860596 374.398804 C 357.878967 362.498352 333.959808 350.472076 310.008484 338.510468 C 293.203094 330.117584 276.352325 321.815094 259.573425 313.36969 C 225.245209 296.091064 190.962814 278.721375 156.639206 261.433563 C 140.017685 253.061783 123.383011 244.714035 106.671379 236.524628 C 102.255264 234.360535 97.531357 232.824539 92.948784 231.000137 C 96.447746 228.812851 99.80703 226.351517 103.469383 224.484802 C 121.110092 215.493256 138.802292 206.601212 156.533066 197.788254 C 182.466721 184.898148 208.494705 172.197235 234.396622 159.244003 C 257.444366 147.718109 280.32782 135.8638 303.372406 124.331558 C 322.70752 114.65567 342.19101 105.27684 361.564972 95.677994 C 367.966064 92.506554 374.498322 89.476418 380.488312 85.630486 C 387.658051 81.0271 393.574524 84.495453 399.634338 87.505219 C 424.21167 99.71212 448.74585 112.006203 473.267914 124.324013 C 498.549316 137.023239 523.772949 149.83757 549.066772 162.511993 C 592.232605 184.141876 635.402161 205.764999 678.664795 227.199951 C 683.343567 229.518112 685.25116 232.293076 685.132996 237.590622 C 684.798645 252.581329 684.861938 267.586578 685.0979 282.580933 C 685.169739 287.144409 683.88324 289.809967 679.550964 291.879944 C 661.665405 300.42569 643.928711 309.287079 626.216919 318.190918 C 616.274597 323.189026 606.487915 328.496796 596.041504 333.6427 C 594.225647 333.724335 592.829773 333.48175 591.799438 333.986023 C 581.790649 338.885315 571.779358 343.790222 561.94812 349.029938 C 560.507141 349.797943 559.232971 352.311096 559.194641 354.045837 C 558.948059 365.1922 559.066406 376.346619 559.066467 387.498413 C 559.066833 443.257538 559.049438 499.016663 559.150879 554.775635 C 559.154175 556.58313 560.374817 558.388489 561.028076 560.194824 M 423.778717 149.314789 C 418.858002 146.873444 413.937286 144.432098 408.52948 141.511856 C 402.10553 138.64769 395.681549 135.783524 389.004639 132.471985 C 388.324554 132.640289 387.64444 132.808594 386.196747 133.001801 C 379.130798 136.332291 372.06488 139.662781 364.350464 143.286057 C 358.884033 146.168198 353.417603 149.050354 347.236603 152.106979 C 342.144379 154.651764 337.052124 157.196533 331.228973 159.887589 C 322.466919 164.124298 313.662811 168.276855 304.958771 172.629562 C 299.807281 175.205688 294.813965 178.098053 289.048462 180.998291 C 287.964783 181.424362 286.84137 181.77066 285.803253 182.288132 C 254.222641 198.029648 222.646973 213.781097 191.092133 229.574158 C 190.051605 230.09494 189.23587 231.064911 188.033218 232.058594 C 189.302094 232.895416 189.947922 233.420685 190.67424 233.785767 C 206.736069 241.85907 222.79982 249.928635 238.890549 257.944061 C 240.03569 258.514496 241.391205 258.662628 242.829636 259.712128 C 262.846222 269.821655 282.862793 279.931183 303.328491 290.577423 C 328.325348 303.089203 353.503418 315.258209 378.209351 328.320282 C 385.6828 332.271515 391.261017 332.209869 398.68573 328.269745 C 423.217773 315.251038 448.204193 303.088501 473.676636 290.455902 C 492.767792 280.911102 511.868103 271.384399 530.928833 261.779175 C 532.147705 261.164948 533.060242 259.942749 534.850952 259.065247 C 535.639648 258.808624 536.476013 258.647461 537.210083 258.281342 C 553.607971 250.103745 569.999084 241.912613 586.369202 233.679703 C 587.154175 233.284927 587.734253 232.48288 588.920593 231.407333 C 581.28418 227.582977 574.178467 223.994476 567.046753 220.45842 C 545.713196 209.880722 524.369446 199.323563 502.529144 188.326981 C 492.875061 183.451172 483.245117 178.526794 473.560516 173.71228 C 462.385864 168.157028 451.163025 162.69873 439.466095 156.692047 C 434.330322 154.439194 429.19455 152.18634 423.778717 149.314789 z" stroke-linecap="round" />
</g>
<g transform="matrix(1 0 0 1 380.46 624.31)"  >
<path style="stroke: none; stroke-width: 1; stroke-dasharray: none; stroke-linecap: butt; stroke-dashoffset: 0; stroke-linejoin: miter; stroke-miterlimit: 4; fill: rgb(16,16,16); fill-rule: nonzero; opacity: 1;" vector-effect="non-scaling-stroke"  transform=" translate(-241.46, -485.31)" d="M 92.744949 231.341507 C 97.531357 232.824539 102.255264 234.360535 106.671379 236.524628 C 123.383011 244.714035 140.017685 253.061783 156.639206 261.433563 C 190.962814 278.721375 225.245209 296.091064 259.573425 313.36969 C 276.352325 321.815094 293.203094 330.117584 310.008484 338.510468 C 333.959808 350.472076 357.878967 362.498352 381.860596 374.398804 C 386.845764 376.872589 389.237701 380.255737 389.11441 386.140503 C 388.779785 402.113586 388.998993 418.098328 388.626892 434.663208 C 386.727051 434.658661 385.148529 434.173737 383.679108 433.463226 C 373.770569 428.671967 363.885193 423.832886 353.804993 418.716095 C 339.097717 411.127045 324.577759 403.831177 309.793335 396.317017 C 307.682617 395.422729 305.7789 394.87088 304.000641 394.047913 C 298.310242 391.414612 292.666321 388.680878 286.770874 385.737549 C 281.366119 382.913849 276.195007 380.338501 270.764465 377.561523 C 268.946014 376.703156 267.386932 376.046509 265.090271 375.079163 C 265.090271 380.990784 265.090271 386.002228 265.058868 391.427734 C 265.043457 393.224365 265.059448 394.606934 265.029724 396.446777 C 265.00766 400.269867 265.031372 403.635712 265.022034 407.469116 C 265.013885 417.290405 265.038788 426.644135 265.015991 436.450134 C 264.990662 439.934967 265.013 442.967529 265.013763 446.399353 C 265.019928 447.863861 265.047638 448.929169 265.027191 450.447083 C 265.012848 453.932983 265.046631 456.966248 265.047272 460.467194 C 265.035309 473.956085 265.056488 486.977295 265.030853 500.450806 C 265.015747 503.936768 265.047424 506.970428 265.045227 510.402435 C 265.027191 511.865845 265.04303 512.930908 265.012054 514.463013 C 265.013245 535.272949 265.061249 555.615845 265.061829 576.421143 C 265.030975 580.578369 265.047485 584.273132 265.044006 588.427429 C 265.022247 592.254456 265.020538 595.621887 265.012024 599.458496 C 265.299164 606.964844 265.59314 614.001953 266.231689 621.064392 C 267.033356 621.114929 267.490448 621.140198 268.051208 621.487305 C 274.433319 625.210815 280.711761 628.612549 287.281067 632.192322 C 290.709778 633.921204 293.847626 635.472046 297.241516 637.248779 C 300.265533 638.734802 303.033478 639.994995 306.037842 641.497681 C 309.841644 643.515198 313.408997 645.290161 317.25061 647.268433 C 328.660034 653.035034 339.795258 658.598328 351.193237 664.377563 C 363.639893 670.79126 375.823822 676.989075 388.144165 683.519165 C 389.174805 688.505249 390.716644 693.142151 390.837311 697.815796 C 391.152313 710.014465 390.820831 722.229187 390.798767 734.437561 C 390.79071 738.89679 388.678802 740.267578 384.35434 738.590515 C 381.929138 737.650085 379.439026 736.876953 376.978149 736.028503 C 376.978149 736.028503 376.996613 736.013794 376.851807 735.705444 C 375.448853 734.938232 374.190735 734.479309 372.932587 734.020447 C 372.932587 734.020447 372.465271 734.013855 372.075928 733.81958 C 371.463043 733.387695 371.21405 733.180603 370.939636 733.004211 C 370.939636 733.004211 370.467896 733.002502 370.10965 732.694824 C 368.820068 731.928345 367.888733 731.469543 366.957397 731.010803 C 366.957397 731.010803 366.478119 731.008057 366.080811 730.816772 C 365.456848 730.386658 365.203217 730.181152 364.922699 730.008911 C 364.922699 730.008911 364.461609 730.009338 364.133545 729.710999 C 362.509247 728.968933 361.212982 728.525208 359.916748 728.081421 C 335.191895 715.831543 310.433289 703.649109 285.753326 691.309387 C 267.465424 682.16571 249.329071 672.71875 231.035019 663.587585 C 211.712784 653.943237 192.22377 644.63269 172.915985 634.959961 C 147.199326 622.07666 121.611542 608.936096 95.900154 596.042114 C 92.636055 594.405151 91.930176 592.086914 91.945732 588.811035 C 92.027802 571.518066 91.98027 554.224609 92.367638 536.482056 C 94.195015 536.373474 95.759132 536.458008 97.0495 537.096069 C 106.092323 541.567871 115.061661 546.187805 124.08741 550.694519 C 135.041916 556.164368 146.028763 561.569397 157.294098 567.178894 C 161.384506 569.241211 165.182449 571.127014 169.232193 573.242065 C 172.651352 574.987122 175.818695 576.50293 179.243408 578.241455 C 182.93927 580.103882 186.377762 581.743408 190.060791 583.609619 C 196.528748 586.908813 202.752167 589.981384 209.22699 593.279175 C 211.783325 594.640442 214.088287 595.77655 217.760742 597.58667 C 217.760742 581.793152 217.760742 567.284424 217.785797 552.321777 C 217.743027 537.251221 217.675232 522.63446 217.699661 507.556152 C 217.806503 456.316528 217.796204 405.538452 217.897034 354.76062 C 217.903137 351.68631 216.984924 350.003265 214.147797 348.645905 C 204.337357 343.952332 194.681183 338.937103 184.930206 334.11731 C 183.80899 333.56308 182.460785 333.46814 181.217834 333.160278 C 181.013 333.135345 180.808167 333.110474 180.141998 332.853394 C 179.457367 332.384827 179.208374 332.179688 178.933701 332.005768 C 177.490433 331.436829 176.047165 330.86792 174.145905 329.963501 C 173.460556 329.388092 173.206055 329.18161 172.924408 329.008575 C 172.924408 329.008575 172.461914 329.006897 172.080048 328.818817 C 171.482285 328.395325 171.242294 328.187775 170.978195 328.008118 C 170.978195 328.008118 171.007629 328.017883 170.868195 327.703705 C 168.810547 326.600433 166.892334 325.81134 164.974136 325.022247 C 164.974136 325.022247 165.005432 325.006378 164.858276 324.700867 C 163.453461 323.93634 162.195801 323.477325 160.938126 323.01828 C 160.150986 322.768646 159.363831 322.519012 158.129272 321.9505 C 157.416565 321.429016 157.151276 321.22641 156.885986 321.023773 C 156.885986 321.023773 156.444931 321.020142 156.068237 320.82489 C 155.467972 320.390747 155.219208 320.181946 154.945251 320.003143 C 154.154083 319.755981 153.3629 319.50882 152.128342 318.944153 C 151.456482 318.386963 151.200409 318.181732 150.916733 318.010986 C 150.916733 318.010986 150.453201 318.003754 150.066895 317.812012 C 149.458359 317.38443 149.210739 317.179291 148.937729 317.004761 C 148.937729 317.004761 148.465408 317.003082 148.073654 316.812683 C 147.458405 316.38559 147.209183 316.180054 146.934219 316.005737 C 146.148071 315.759583 145.361938 315.513397 144.128952 314.948975 C 143.416397 314.428558 143.150665 314.22641 142.884949 314.024231 C 142.884949 314.024231 142.451096 314.026459 142.08017 313.833588 C 141.489838 313.402191 141.246185 313.191711 140.978317 313.009277 C 140.978317 313.009277 141.007324 313.022095 140.858704 312.709045 C 139.45134 311.937317 138.192627 311.478638 136.933899 311.019928 C 136.14183 310.769409 135.349762 310.51889 134.119385 309.945404 C 133.456696 309.385498 133.206345 309.180267 132.930023 309.006714 C 132.930023 309.006714 132.465286 309.007629 132.075562 308.816956 C 131.460007 308.387482 131.207642 308.181152 130.928757 308.007202 C 130.149933 307.764343 129.371109 307.521484 128.143494 306.958862 C 127.421638 306.435944 127.148582 306.232819 126.875526 306.029663 C 126.875526 306.029663 126.435265 306.016296 126.057411 305.819733 C 125.45282 305.385681 125.199417 305.181244 124.91935 305.009857 C 124.91935 305.009857 124.460182 305.011353 124.160194 304.765686 C 123.218651 304.368347 122.577095 304.216644 121.935539 304.064941 C 121.457764 303.797852 120.97998 303.530731 120.132553 302.834198 C 118.816154 301.944458 117.869392 301.484161 116.922638 301.023865 C 116.922638 301.023865 116.462318 301.01767 116.075485 300.822662 C 115.463959 300.388855 115.213364 300.181335 114.936859 300.005066 C 114.936859 300.005066 114.462471 299.999481 114.070953 299.809265 C 113.457497 299.383606 113.210152 299.178864 112.937416 299.004822 C 112.147919 298.758484 111.358414 298.512177 110.167099 297.813416 C 108.170242 296.577698 106.575195 295.794434 104.980148 295.011169 C 104.980148 295.011169 105.003761 295.000366 104.930702 294.770508 C 104.227242 294.371887 103.596848 294.203125 102.966461 294.034363 C 102.165596 293.774017 101.364738 293.513672 100.119324 292.935669 C 99.449593 292.382294 99.197861 292.179596 98.919571 292.009857 C 98.919571 292.009857 98.459915 292.009766 98.070267 291.81778 C 97.451134 291.387115 97.194252 291.182922 96.909973 291.013184 C 96.909973 291.013184 96.455315 291.012543 96.119667 290.695984 C 94.524689 289.587067 93.265358 288.794769 92.006027 288.002441 C 92.003357 287.555969 92.000687 287.109467 92.143982 286.150208 C 92.195999 285.094269 92.102043 284.551178 92.008087 284.008057 C 92.004341 280.639008 92.000587 277.269989 92.200958 273.146393 C 92.274734 270.600006 92.144386 268.808136 92.014038 267.016296 C 92.01429 266.843048 92.014534 266.66983 92.225204 265.886566 C 92.291756 260.519318 92.147865 255.7621 92.003983 251.004883 C 91.998634 248.629654 91.993279 246.254425 92.170792 243.212906 C 92.24028 241.702438 92.126915 240.858276 92.01355 240.014099 C 92.1894 237.23703 92.365257 234.459946 92.744949 231.341507 z" stroke-linecap="round" />
</g>
<g transform="matrix(1 0 0 1 527.51 668.9)"  >
<path style="stroke: none; stroke-width: 1; stroke-dasharray: none; stroke-linecap: butt; stroke-dashoffset: 0; stroke-linejoin: miter; stroke-miterlimit: 4; fill: rgb(8,222,219); fill-rule: nonzero; opacity: 1;" vector-effect="non-scaling-stroke"  transform=" translate(-388.51, -529.9)" d="M 353.99231 419.009277 C 363.885193 423.832886 373.770569 428.671967 383.679108 433.463226 C 385.148529 434.173737 386.727051 434.658661 388.625977 435.132996 C 400.074646 429.65097 411.152374 424.283966 422.608398 419.281921 C 423.253082 421.452972 423.736847 423.257202 423.75177 425.065308 C 423.881195 440.712738 424.05957 456.361816 423.947693 472.008453 C 423.877808 481.785614 423.09082 491.558899 423.071747 501.334808 C 423.054321 510.24408 423.830017 519.153137 423.896576 528.06488 C 423.949432 535.14563 423.231812 542.231506 423.264618 549.313232 C 423.311249 559.382568 423.875244 569.449036 423.960724 579.518921 C 424.098175 595.715149 424.025208 611.913086 424.041138 628.110352 C 418.182037 631.369751 412.337311 634.655396 406.454712 637.871704 C 404.771942 638.791748 402.979248 639.510681 400.708923 640.791016 C 396.738831 640.313293 393.296722 639.366455 389.633484 638.154358 C 388.942017 635.8349 388.093842 633.78595 388.065247 631.725586 C 387.924255 621.56134 387.787109 611.387634 388.092865 601.230652 C 388.23819 596.40332 386.646423 593.524048 382.195007 591.498352 C 374.312378 587.911316 366.703949 583.726562 358.885529 579.991333 C 354.777466 578.028687 352.894165 575.067566 352.975708 570.5271 C 353.103333 563.417358 353.001526 556.303528 353.000549 549.191467 C 352.999023 538.045288 353.000641 526.899048 353.000671 515.752869 C 353.000793 491.58728 352.980499 467.421692 353.021759 443.256165 C 353.028259 439.459686 353.314667 435.663666 353.469849 431.867401 C 353.64505 427.58139 353.818237 423.295319 353.99231 419.009277 z" stroke-linecap="round" />
</g>
<g transform="matrix(1 0 0 1 584.72 651.51)"  >
<path style="stroke: none; stroke-width: 1; stroke-dasharray: none; stroke-linecap: butt; stroke-dashoffset: 0; stroke-linejoin: miter; stroke-miterlimit: 4; fill: rgb(1,221,218); fill-rule: nonzero; opacity: 1;" vector-effect="non-scaling-stroke"  transform=" translate(-445.72, -512.51)" d="M 424.405579 628.055664 C 424.025208 611.913086 424.098175 595.715149 423.960724 579.518921 C 423.875244 569.449036 423.311249 559.382568 423.264618 549.313232 C 423.231812 542.231506 423.949432 535.14563 423.896576 528.06488 C 423.830017 519.153137 423.054321 510.24408 423.071747 501.334808 C 423.09082 491.558899 423.877808 481.785614 423.947693 472.008453 C 424.05957 456.361816 423.881195 440.712738 423.75177 425.065308 C 423.736847 423.257202 423.253082 421.452972 422.968567 419.227661 C 437.411163 411.46701 451.871857 404.125671 466.960388 396.956482 C 467.732178 399.109283 468.000397 401.089844 468.001678 403.070557 C 468.025787 440.727966 467.989502 478.385406 468.027161 516.042786 C 468.055145 544.030884 468.170441 572.018799 468.1745 600.304871 C 468.251373 601.579712 468.400604 602.556519 468.462219 603.833374 C 468.407806 604.338318 468.440979 604.543274 468.281525 604.990479 C 467.044434 606.220215 465.999939 607.207825 464.955444 608.195374 C 451.560303 614.797241 438.165131 621.39917 424.405579 628.055664 z" stroke-linecap="round" />
</g>
<g transform="matrix(1 0 0 1 716.56 585.85)"  >
<path style="stroke: none; stroke-width: 1; stroke-dasharray: none; stroke-linecap: butt; stroke-dashoffset: 0; stroke-linejoin: miter; stroke-miterlimit: 4; fill: rgb(8,222,219); fill-rule: nonzero; opacity: 1;" vector-effect="non-scaling-stroke"  transform=" translate(-577.56, -446.85)" d="M 561.346436 560.021484 C 560.374817 558.388489 559.154175 556.58313 559.150879 554.775635 C 559.049438 499.016663 559.066833 443.257538 559.066467 387.498413 C 559.066406 376.346619 558.948059 365.1922 559.194641 354.045837 C 559.232971 352.311096 560.507141 349.797943 561.94812 349.029938 C 571.779358 343.790222 581.790649 338.885315 591.799438 333.986023 C 592.829773 333.48175 594.225647 333.724335 595.752625 333.821991 C 596.038574 376.7742 596.021484 419.52478 596.009888 462.27536 C 596.003052 487.582764 595.934875 512.890625 596.085999 538.197083 C 596.106323 541.60437 594.669922 543.229919 591.91864 544.594849 C 581.801575 549.613953 571.744446 554.753784 561.346436 560.021484 z" stroke-linecap="round" />
</g>
<g transform="matrix(1 0 0 1 337.99 559.55)"  >
<path style="stroke: none; stroke-width: 1; stroke-dasharray: none; stroke-linecap: butt; stroke-dashoffset: 0; stroke-linejoin: miter; stroke-miterlimit: 4; fill: rgb(9,220,217); fill-rule: nonzero; opacity: 1;" vector-effect="non-scaling-stroke"  transform=" translate(-199, -420.55)" d="M 181.153503 333.607605 C 182.460785 333.46814 183.80899 333.56308 184.930206 334.11731 C 194.681183 338.937103 204.337357 343.952332 214.147797 348.645905 C 216.984924 350.003265 217.903137 351.68631 217.897034 354.76062 C 217.796204 405.538452 217.806503 456.316528 217.335358 507.540405 C 215.181976 507.394714 213.424133 506.936127 211.798325 506.18988 C 201.570267 501.495392 191.371567 496.736908 181.163177 491.999573 C 181.107758 479.541351 181.020065 467.08316 181.004181 454.624908 C 180.977615 433.810272 181.113327 412.99469 180.955582 392.181213 C 180.852692 378.605652 180.208755 365.034302 180.096008 351.458649 C 180.047867 345.660553 180.735733 339.856384 181.153503 333.607605 z" stroke-linecap="round" />
</g>
<g transform="matrix(1 0 0 1 510.86 780.72)"  >
<path style="stroke: none; stroke-width: 1; stroke-dasharray: none; stroke-linecap: butt; stroke-dashoffset: 0; stroke-linejoin: miter; stroke-miterlimit: 4; fill: rgb(6,98,93); fill-rule: nonzero; opacity: 1;" vector-effect="non-scaling-stroke"  transform=" translate(-371.86, -641.71)" d="M 389.854614 638.419617 C 393.296722 639.366455 396.738831 640.313293 400.58783 641.128906 C 408.845337 645.250061 416.703156 649.489319 424.543335 653.760925 C 427.966797 655.62616 431.354156 657.557678 434.626343 659.864685 C 418.999084 667.909119 403.503418 675.547974 388.007751 683.18689 C 375.823822 676.989075 363.639893 670.79126 351.182037 664.002319 C 350.099945 662.272827 349.494965 660.884766 348.451355 660.036011 C 340.529175 653.593018 333.167877 646.548096 328.20755 637.578369 C 323.176788 628.481323 319.016174 618.906555 314.180084 609.695618 C 313.169769 607.771362 310.872131 606.52301 309.134247 604.567627 C 309.0849 603.111938 309.069061 602.051819 309.214417 600.863892 C 309.572388 600.54303 309.760529 600.341858 310.27356 600.23584 C 335.023376 612.554993 359.426666 624.797363 383.882965 636.9328 C 385.677551 637.823303 387.855103 637.942078 389.854614 638.419617 z" stroke-linecap="round" />
</g>
<g transform="matrix(1 0 0 1 546.14 839.68)"  >
<path style="stroke: none; stroke-width: 1; stroke-dasharray: none; stroke-linecap: butt; stroke-dashoffset: 0; stroke-linejoin: miter; stroke-miterlimit: 4; fill: rgb(20,20,19); fill-rule: nonzero; opacity: 1;" vector-effect="non-scaling-stroke"  transform=" translate(-407.14, -700.67)" d="M 388.144165 683.519226 C 403.503418 675.547974 418.999084 667.909119 434.835571 660.145386 C 435.787598 661.818604 436.913818 663.612183 436.929443 665.415405 C 437.067413 681.364746 436.939026 697.316223 437.062286 713.265747 C 437.088959 716.716492 435.846802 718.678955 432.725647 720.216919 C 420.527832 726.227356 408.256531 732.137451 396.406403 738.786804 C 389.092468 742.890686 383.248413 741.552429 377.207764 736.275635 C 379.439026 736.876953 381.929138 737.650085 384.35434 738.590515 C 388.678802 740.267578 390.79071 738.89679 390.798767 734.437561 C 390.820831 722.229187 391.152313 710.014465 390.837311 697.815796 C 390.716644 693.142151 389.174805 688.505249 388.144165 683.519226 z" stroke-linecap="round" />
</g>
<g transform="matrix(1 0 0 1 276.36 678.78)"  >
<path style="stroke: none; stroke-width: 1; stroke-dasharray: none; stroke-linecap: butt; stroke-dashoffset: 0; stroke-linejoin: miter; stroke-miterlimit: 4; fill: rgb(18,27,25); fill-rule: nonzero; opacity: 1;" vector-effect="non-scaling-stroke"  transform=" translate(-137.36, -539.77)" d="M 157.001648 567.002441 C 146.028763 561.569397 135.041916 556.164368 124.08741 550.694519 C 115.061661 546.187805 106.092323 541.567871 97.0495 537.096069 C 95.759132 536.458008 94.195015 536.373474 92.365845 536.026978 C 98.982338 532.249939 105.934387 528.369202 113.014397 524.737976 C 120.253418 521.025208 127.719513 517.746765 134.886642 513.905762 C 138.74675 511.837128 141.943588 512.282227 145.635452 514.217163 C 155.191254 519.225342 164.891907 523.958618 174.565918 528.738525 C 176.334854 529.612549 178.251083 530.188538 180.556564 531.289917 C 181.51297 533.298462 182.012161 534.919067 182.348297 536.927734 C 182.031036 537.855347 181.876846 538.394897 181.388474 538.973694 C 179.918594 539.633728 178.573578 540.040039 177.681259 540.9104 C 171.952118 546.498535 166.434158 552.30719 160.610977 557.79303 C 157.832596 560.410461 156.565674 563.288635 157.001648 567.002441 z" stroke-linecap="round" />
</g>
<g transform="matrix(1 0 0 1 627.5 777.54)"  >
<path style="stroke: none; stroke-width: 1; stroke-dasharray: none; stroke-linecap: butt; stroke-dashoffset: 0; stroke-linejoin: miter; stroke-miterlimit: 4; fill: rgb(18,27,25); fill-rule: nonzero; opacity: 1;" vector-effect="non-scaling-stroke"  transform=" translate(-488.5, -638.54)" d="M 465.019684 608.534546 C 465.999939 607.207825 467.044434 606.220215 468.582397 605.219482 C 482.27417 613.53418 496.870056 615.038635 511.987762 613.9953 C 511.318024 631.771179 510.688324 649.548767 509.950012 667.321838 C 509.768341 671.694214 507.960205 672.691895 503.62262 671.253479 C 497.339874 669.169983 491.048828 667.111633 484.356873 665.046509 C 483.952484 665.050476 483.981964 665.032349 483.843933 664.716797 C 482.463684 663.942444 481.221466 663.483704 479.979248 663.024902 C 479.979248 663.024902 479.998383 663.007324 479.878265 662.692017 C 476.478882 660.937378 473.199585 659.498108 469.920319 658.058777 C 469.920319 658.058777 469.458588 658.034241 469.073883 657.831665 C 468.468781 657.394287 468.223694 657.188904 467.953888 657.013 C 467.953888 657.013 467.477722 657.003418 467.087158 656.815369 C 466.480347 656.39209 466.243225 656.180115 465.985229 655.991516 C 465.719391 648.784851 465.3461 641.5802 465.215698 634.371094 C 465.061981 625.873901 465.11853 617.372986 465.019684 608.534546 z" stroke-linecap="round" />
</g>
<g transform="matrix(1 0 0 1 338.1 661.38)"  >
<path style="stroke: none; stroke-width: 1; stroke-dasharray: none; stroke-linecap: butt; stroke-dashoffset: 0; stroke-linejoin: miter; stroke-miterlimit: 4; fill: rgb(1,220,217); fill-rule: nonzero; opacity: 1;" vector-effect="non-scaling-stroke"  transform=" translate(-199.1, -522.38)" d="M 182.511353 536.539734 C 182.012161 534.919067 181.51297 533.298462 180.918533 531.32196 C 180.733978 519.654663 180.62735 508.343323 180.577316 497.031708 C 180.57106 495.619568 180.864304 494.206116 181.090958 492.396423 C 191.371567 496.736908 201.570267 501.495392 211.798325 506.18988 C 213.424133 506.936127 215.181976 507.394714 217.243103 508.002014 C 217.675232 522.63446 217.743027 537.251221 217.426773 552.356934 C 215.209076 552.151306 213.310593 551.590759 211.552612 550.739929 C 201.853241 546.045654 192.188187 541.280518 182.511353 536.539734 z" stroke-linecap="round" />
</g>
<g transform="matrix(1 0 0 1 614.02 799.5)"  >
<path style="stroke: none; stroke-width: 1; stroke-dasharray: none; stroke-linecap: butt; stroke-dashoffset: 0; stroke-linejoin: miter; stroke-miterlimit: 4; fill: rgb(20,20,19); fill-rule: nonzero; opacity: 1;" vector-effect="non-scaling-stroke"  transform=" translate(-475.02, -660.5)" d="M 470.173645 658.288696 C 473.199585 659.498108 476.478882 660.937378 479.86734 662.704407 C 476.793365 661.527588 473.610168 660.023132 470.173645 658.288696 z" stroke-linecap="round" />
</g>
<g transform="matrix(1 0 0 1 231.12 397.54)"  >
<path style="stroke: none; stroke-width: 1; stroke-dasharray: none; stroke-linecap: butt; stroke-dashoffset: 0; stroke-linejoin: miter; stroke-miterlimit: 4; fill: rgb(20,20,19); fill-rule: nonzero; opacity: 1;" vector-effect="non-scaling-stroke"  transform=" translate(-92.12, -258.54)" d="M 91.999199 251.449081 C 92.147865 255.7621 92.291756 260.519318 92.227203 265.626709 C 92.010643 261.282349 92.002525 256.587799 91.999199 251.449081 z" stroke-linecap="round" />
</g>
<g transform="matrix(1 0 0 1 307.01 465.51)"  >
<path style="stroke: none; stroke-width: 1; stroke-dasharray: none; stroke-linecap: butt; stroke-dashoffset: 0; stroke-linejoin: miter; stroke-miterlimit: 4; fill: rgb(20,20,19); fill-rule: nonzero; opacity: 1;" vector-effect="non-scaling-stroke"  transform=" translate(-168.01, -326.5)" d="M 165.172791 325.297302 C 166.892334 325.81134 168.810547 326.600433 170.85434 327.711731 C 169.110443 327.213409 167.240952 326.392883 165.172791 325.297302 z" stroke-linecap="round" />
</g>
<g transform="matrix(1 0 0 1 246.53 435.48)"  >
<path style="stroke: none; stroke-width: 1; stroke-dasharray: none; stroke-linecap: butt; stroke-dashoffset: 0; stroke-linejoin: miter; stroke-miterlimit: 4; fill: rgb(20,20,19); fill-rule: nonzero; opacity: 1;" vector-effect="non-scaling-stroke"  transform=" translate(-107.53, -296.48)" d="M 105.170197 295.283905 C 106.575195 295.794434 108.170242 296.577698 109.88385 297.682861 C 108.455025 297.188751 106.907639 296.372711 105.170197 295.283905 z" stroke-linecap="round" />
</g>
<g transform="matrix(1 0 0 1 501.03 868.01)"  >
<path style="stroke: none; stroke-width: 1; stroke-dasharray: none; stroke-linecap: butt; stroke-dashoffset: 0; stroke-linejoin: miter; stroke-miterlimit: 4; fill: rgb(20,20,19); fill-rule: nonzero; opacity: 1;" vector-effect="non-scaling-stroke"  transform=" translate(-362.03, -729.01)" d="M 360.155701 728.306091 C 361.212982 728.525208 362.509247 728.968933 363.903046 729.707031 C 362.798584 729.511169 361.596619 729.020996 360.155701 728.306091 z" stroke-linecap="round" />
</g>
<g transform="matrix(1 0 0 1 233 428.51)"  >
<path style="stroke: none; stroke-width: 1; stroke-dasharray: none; stroke-linecap: butt; stroke-dashoffset: 0; stroke-linejoin: miter; stroke-miterlimit: 4; fill: rgb(20,20,19); fill-rule: nonzero; opacity: 1;" vector-effect="non-scaling-stroke"  transform=" translate(-94, -289.5)" d="M 92.108223 288.315979 C 93.265358 288.794769 94.524689 289.587067 95.89241 290.69043 C 94.737335 290.210846 93.473869 289.420166 92.108223 288.315979 z" stroke-linecap="round" />
</g>
<g transform="matrix(1 0 0 1 513.99 874)"  >
<path style="stroke: none; stroke-width: 1; stroke-dasharray: none; stroke-linecap: butt; stroke-dashoffset: 0; stroke-linejoin: miter; stroke-miterlimit: 4; fill: rgb(20,20,19); fill-rule: nonzero; opacity: 1;" vector-effect="non-scaling-stroke"  transform=" translate(-374.99, -735)" d="M 373.137939 734.289185 C 374.190735 734.479309 375.448853 734.938232 376.840698 735.717773 C 375.764069 735.544861 374.553711 735.051392 373.137939 734.289185 z" stroke-linecap="round" />
</g>
<g transform="matrix(1 0 0 1 301.99 463)"  >
<path style="stroke: none; stroke-width: 1; stroke-dasharray: none; stroke-linecap: butt; stroke-dashoffset: 0; stroke-linejoin: miter; stroke-miterlimit: 4; fill: rgb(20,20,19); fill-rule: nonzero; opacity: 1;" vector-effect="non-scaling-stroke"  transform=" translate(-162.99, -324)" d="M 161.138062 323.294617 C 162.195801 323.477325 163.453461 323.93634 164.846497 324.715363 C 163.767258 324.547211 162.552628 324.059113 161.138062 323.294617 z" stroke-linecap="round" />
</g>
<g transform="matrix(1 0 0 1 277.99 451)"  >
<path style="stroke: none; stroke-width: 1; stroke-dasharray: none; stroke-linecap: butt; stroke-dashoffset: 0; stroke-linejoin: miter; stroke-miterlimit: 4; fill: rgb(20,20,19); fill-rule: nonzero; opacity: 1;" vector-effect="non-scaling-stroke"  transform=" translate(-138.99, -312)" d="M 137.140457 311.28833 C 138.192627 311.478638 139.45134 311.937317 140.84433 312.716614 C 139.768066 312.543701 138.557541 312.050201 137.140457 311.28833 z" stroke-linecap="round" />
</g>
<g transform="matrix(1 0 0 1 621.02 802.99)"  >
<path style="stroke: none; stroke-width: 1; stroke-dasharray: none; stroke-linecap: butt; stroke-dashoffset: 0; stroke-linejoin: miter; stroke-miterlimit: 4; fill: rgb(20,20,19); fill-rule: nonzero; opacity: 1;" vector-effect="non-scaling-stroke"  transform=" translate(-482.02, -663.99)" d="M 480.206573 663.255798 C 481.221466 663.483704 482.463684 663.942444 483.835999 664.720886 C 482.788696 664.522583 481.611298 664.004639 480.206573 663.255798 z" stroke-linecap="round" />
</g>
<g transform="matrix(1 0 0 1 231.12 409.06)"  >
<path style="stroke: none; stroke-width: 1; stroke-dasharray: none; stroke-linecap: butt; stroke-dashoffset: 0; stroke-linejoin: miter; stroke-miterlimit: 4; fill: rgb(20,20,19); fill-rule: nonzero; opacity: 1;" vector-effect="non-scaling-stroke"  transform=" translate(-92.12, -270.06)" d="M 92.006607 267.442169 C 92.144386 268.808136 92.274734 270.600006 92.209801 272.687134 C 92.009399 271.277618 92.004288 269.572845 92.006607 267.442169 z" stroke-linecap="round" />
</g>
<g transform="matrix(1 0 0 1 257.5 441)"  >
<path style="stroke: none; stroke-width: 1; stroke-dasharray: none; stroke-linecap: butt; stroke-dashoffset: 0; stroke-linejoin: miter; stroke-miterlimit: 4; fill: rgb(20,20,19); fill-rule: nonzero; opacity: 1;" vector-effect="non-scaling-stroke"  transform=" translate(-118.5, -302)" d="M 117.114243 301.27832 C 117.869392 301.484161 118.816154 301.944458 119.887283 302.712769 C 119.109734 302.524811 118.207794 302.028809 117.114243 301.27832 z" stroke-linecap="round" />
</g>
<g transform="matrix(1 0 0 1 507.51 870.98)"  >
<path style="stroke: none; stroke-width: 1; stroke-dasharray: none; stroke-linecap: butt; stroke-dashoffset: 0; stroke-linejoin: miter; stroke-miterlimit: 4; fill: rgb(20,20,19); fill-rule: nonzero; opacity: 1;" vector-effect="non-scaling-stroke"  transform=" translate(-368.51, -731.98)" d="M 367.141907 731.266479 C 367.888733 731.469543 368.820068 731.928345 369.87384 732.68988 C 369.106323 732.502441 368.21637 732.012268 367.141907 731.266479 z" stroke-linecap="round" />
</g>
<g transform="matrix(1 0 0 1 262.05 443.51)"  >
<path style="stroke: none; stroke-width: 1; stroke-dasharray: none; stroke-linecap: butt; stroke-dashoffset: 0; stroke-linejoin: miter; stroke-miterlimit: 4; fill: rgb(20,20,19); fill-rule: nonzero; opacity: 1;" vector-effect="non-scaling-stroke"  transform=" translate(-123.04, -304.51)" d="M 122.157829 304.249878 C 122.577095 304.216644 123.218651 304.368347 123.930649 304.76123 C 123.460762 304.813232 122.920441 304.623993 122.157829 304.249878 z" stroke-linecap="round" />
</g>
<g transform="matrix(1 0 0 1 243.06 433.5)"  >
<path style="stroke: none; stroke-width: 1; stroke-dasharray: none; stroke-linecap: butt; stroke-dashoffset: 0; stroke-linejoin: miter; stroke-miterlimit: 4; fill: rgb(20,20,19); fill-rule: nonzero; opacity: 1;" vector-effect="non-scaling-stroke"  transform=" translate(-104.05, -294.5)" d="M 103.18576 294.218201 C 103.596848 294.203125 104.227242 294.371887 104.924057 294.782166 C 104.461998 294.816437 103.933533 294.609253 103.18576 294.218201 z" stroke-linecap="round" />
</g>
<g transform="matrix(1 0 0 1 231.11 380.58)"  >
<path style="stroke: none; stroke-width: 1; stroke-dasharray: none; stroke-linecap: butt; stroke-dashoffset: 0; stroke-linejoin: miter; stroke-miterlimit: 4; fill: rgb(20,20,19); fill-rule: nonzero; opacity: 1;" vector-effect="non-scaling-stroke"  transform=" translate(-92.1, -241.58)" d="M 92.007767 240.385925 C 92.126915 240.858276 92.24028 241.702438 92.181778 242.767914 C 92.007263 242.245377 92.004623 241.501556 92.007767 240.385925 z" stroke-linecap="round" />
</g>
<g transform="matrix(1 0 0 1 231.08 424.08)"  >
<path style="stroke: none; stroke-width: 1; stroke-dasharray: none; stroke-linecap: butt; stroke-dashoffset: 0; stroke-linejoin: miter; stroke-miterlimit: 4; fill: rgb(20,20,19); fill-rule: nonzero; opacity: 1;" vector-effect="non-scaling-stroke"  transform=" translate(-92.08, -285.08)" d="M 92.004471 284.338928 C 92.102043 284.551178 92.195999 285.094269 92.148293 285.815338 C 92.004707 285.552124 92.002777 285.110931 92.004471 284.338928 z" stroke-linecap="round" />
</g>
<g transform="matrix(1 0 0 1 312.46 468.51)"  >
<path style="stroke: none; stroke-width: 1; stroke-dasharray: none; stroke-linecap: butt; stroke-dashoffset: 0; stroke-linejoin: miter; stroke-miterlimit: 4; fill: rgb(20,20,19); fill-rule: nonzero; opacity: 1;" vector-effect="non-scaling-stroke"  transform=" translate(-173.46, -329.51)" d="M 173.080536 329.199707 C 173.206055 329.18161 173.460556 329.388092 173.846329 329.816162 C 173.717163 329.839355 173.461151 329.634857 173.080536 329.199707 z" stroke-linecap="round" />
</g>
<g transform="matrix(1 0 0 1 510.47 872.5)"  >
<path style="stroke: none; stroke-width: 1; stroke-dasharray: none; stroke-linecap: butt; stroke-dashoffset: 0; stroke-linejoin: miter; stroke-miterlimit: 4; fill: rgb(20,20,19); fill-rule: nonzero; opacity: 1;" vector-effect="non-scaling-stroke"  transform=" translate(-371.47, -733.5)" d="M 371.095001 733.191772 C 371.21405 733.180603 371.463043 733.387695 371.842346 733.811707 C 371.720795 733.825806 371.471527 733.619568 371.095001 733.191772 z" stroke-linecap="round" />
</g>
<g transform="matrix(1 0 0 1 310.48 467.51)"  >
<path style="stroke: none; stroke-width: 1; stroke-dasharray: none; stroke-linecap: butt; stroke-dashoffset: 0; stroke-linejoin: miter; stroke-miterlimit: 4; fill: rgb(20,20,19); fill-rule: nonzero; opacity: 1;" vector-effect="non-scaling-stroke"  transform=" translate(-171.49, -328.51)" d="M 171.121262 328.200012 C 171.242294 328.187775 171.482285 328.395325 171.848846 328.815369 C 171.722092 328.836426 171.477036 328.633759 171.121262 328.200012 z" stroke-linecap="round" />
</g>
<g transform="matrix(1 0 0 1 504.46 869.51)"  >
<path style="stroke: none; stroke-width: 1; stroke-dasharray: none; stroke-linecap: butt; stroke-dashoffset: 0; stroke-linejoin: miter; stroke-miterlimit: 4; fill: rgb(20,20,19); fill-rule: nonzero; opacity: 1;" vector-effect="non-scaling-stroke"  transform=" translate(-365.46, -730.51)" d="M 365.080017 730.19751 C 365.203217 730.181152 365.456848 730.386658 365.841217 730.812744 C 365.715424 730.832153 365.461548 730.627502 365.080017 730.19751 z" stroke-linecap="round" />
</g>
<g transform="matrix(1 0 0 1 296.45 460.51)"  >
<path style="stroke: none; stroke-width: 1; stroke-dasharray: none; stroke-linecap: butt; stroke-dashoffset: 0; stroke-linejoin: miter; stroke-miterlimit: 4; fill: rgb(20,20,19); fill-rule: nonzero; opacity: 1;" vector-effect="non-scaling-stroke"  transform=" translate(-157.45, -321.52)" d="M 157.053375 321.210632 C 157.151276 321.22641 157.416565 321.429016 157.846451 321.820618 C 157.747604 321.805573 157.484177 321.601562 157.053375 321.210632 z" stroke-linecap="round" />
</g>
<g transform="matrix(1 0 0 1 294.47 459.5)"  >
<path style="stroke: none; stroke-width: 1; stroke-dasharray: none; stroke-linecap: butt; stroke-dashoffset: 0; stroke-linejoin: miter; stroke-miterlimit: 4; fill: rgb(20,20,19); fill-rule: nonzero; opacity: 1;" vector-effect="non-scaling-stroke"  transform=" translate(-155.47, -320.5)" d="M 155.100464 320.191833 C 155.219208 320.181946 155.467972 320.390747 155.84787 320.81665 C 155.726517 320.829773 155.47702 320.62204 155.100464 320.191833 z" stroke-linecap="round" />
</g>
<g transform="matrix(1 0 0 1 607.48 796.51)"  >
<path style="stroke: none; stroke-width: 1; stroke-dasharray: none; stroke-linecap: butt; stroke-dashoffset: 0; stroke-linejoin: miter; stroke-miterlimit: 4; fill: rgb(20,20,19); fill-rule: nonzero; opacity: 1;" vector-effect="non-scaling-stroke"  transform=" translate(-468.47, -657.51)" d="M 468.105103 657.200317 C 468.223694 657.188904 468.468781 657.394287 468.843445 657.812866 C 468.721497 657.829041 468.474365 657.626038 468.105103 657.200317 z" stroke-linecap="round" />
</g>
<g transform="matrix(1 0 0 1 605.48 795.5)"  >
<path style="stroke: none; stroke-width: 1; stroke-dasharray: none; stroke-linecap: butt; stroke-dashoffset: 0; stroke-linejoin: miter; stroke-miterlimit: 4; fill: rgb(20,20,19); fill-rule: nonzero; opacity: 1;" vector-effect="non-scaling-stroke"  transform=" translate(-466.49, -656.5)" d="M 466.123291 656.188721 C 466.243225 656.180115 466.480347 656.39209 466.849121 656.810913 C 466.717468 656.837158 466.470734 656.634338 466.123291 656.188721 z" stroke-linecap="round" />
</g>
<g transform="matrix(1 0 0 1 236.45 430.51)"  >
<path style="stroke: none; stroke-width: 1; stroke-dasharray: none; stroke-linecap: butt; stroke-dashoffset: 0; stroke-linejoin: miter; stroke-miterlimit: 4; fill: rgb(20,20,19); fill-rule: nonzero; opacity: 1;" vector-effect="non-scaling-stroke"  transform=" translate(-97.46, -291.51)" d="M 97.072006 291.199097 C 97.194252 291.182922 97.451134 291.387115 97.840485 291.812897 C 97.717743 291.828888 97.462303 291.623901 97.072006 291.199097 z" stroke-linecap="round" />
</g>
<g transform="matrix(1 0 0 1 238.46 431.5)"  >
<path style="stroke: none; stroke-width: 1; stroke-dasharray: none; stroke-linecap: butt; stroke-dashoffset: 0; stroke-linejoin: miter; stroke-miterlimit: 4; fill: rgb(20,20,19); fill-rule: nonzero; opacity: 1;" vector-effect="non-scaling-stroke"  transform=" translate(-99.45, -292.5)" d="M 99.07814 292.193878 C 99.197861 292.179596 99.449593 292.382294 99.831207 292.802734 C 99.710678 292.817108 99.460365 292.613922 99.07814 292.193878 z" stroke-linecap="round" />
</g>
<g transform="matrix(1 0 0 1 288.46 456.5)"  >
<path style="stroke: none; stroke-width: 1; stroke-dasharray: none; stroke-linecap: butt; stroke-dashoffset: 0; stroke-linejoin: miter; stroke-miterlimit: 4; fill: rgb(20,20,19); fill-rule: nonzero; opacity: 1;" vector-effect="non-scaling-stroke"  transform=" translate(-149.46, -317.5)" d="M 149.093124 317.189941 C 149.210739 317.179291 149.458359 317.38443 149.835205 317.804993 C 149.715881 317.817291 149.468781 317.612427 149.093124 317.189941 z" stroke-linecap="round" />
</g>
<g transform="matrix(1 0 0 1 252.46 438.5)"  >
<path style="stroke: none; stroke-width: 1; stroke-dasharray: none; stroke-linecap: butt; stroke-dashoffset: 0; stroke-linejoin: miter; stroke-miterlimit: 4; fill: rgb(20,20,19); fill-rule: nonzero; opacity: 1;" vector-effect="non-scaling-stroke"  transform=" translate(-113.46, -299.5)" d="M 113.092575 299.189758 C 113.210152 299.178864 113.457497 299.383606 113.833817 299.803528 C 113.714531 299.815979 113.467712 299.611542 113.092575 299.189758 z" stroke-linecap="round" />
</g>
<g transform="matrix(1 0 0 1 254.47 439.5)"  >
<path style="stroke: none; stroke-width: 1; stroke-dasharray: none; stroke-linecap: butt; stroke-dashoffset: 0; stroke-linejoin: miter; stroke-miterlimit: 4; fill: rgb(20,20,19); fill-rule: nonzero; opacity: 1;" vector-effect="non-scaling-stroke"  transform=" translate(-115.47, -300.5)" d="M 115.092468 300.194061 C 115.213364 300.181335 115.463959 300.388855 115.845444 300.814819 C 115.721748 300.831146 115.470367 300.624847 115.092468 300.194061 z" stroke-linecap="round" />
</g>
<g transform="matrix(1 0 0 1 318.46 471.5)"  >
<path style="stroke: none; stroke-width: 1; stroke-dasharray: none; stroke-linecap: butt; stroke-dashoffset: 0; stroke-linejoin: miter; stroke-miterlimit: 4; fill: rgb(20,20,19); fill-rule: nonzero; opacity: 1;" vector-effect="non-scaling-stroke"  transform=" translate(-179.46, -332.5)" d="M 179.09021 332.19104 C 179.208374 332.179688 179.457367 332.384827 179.83609 332.806366 C 179.716568 332.818756 179.468307 332.613647 179.09021 332.19104 z" stroke-linecap="round" />
</g>
<g transform="matrix(1 0 0 1 264.46 444.5)"  >
<path style="stroke: none; stroke-width: 1; stroke-dasharray: none; stroke-linecap: butt; stroke-dashoffset: 0; stroke-linejoin: miter; stroke-miterlimit: 4; fill: rgb(20,20,19); fill-rule: nonzero; opacity: 1;" vector-effect="non-scaling-stroke"  transform=" translate(-125.46, -305.5)" d="M 125.079239 305.195099 C 125.199417 305.181244 125.45282 305.385681 125.837433 305.809296 C 125.716568 305.823181 125.464508 305.618134 125.079239 305.195099 z" stroke-linecap="round" />
</g>
<g transform="matrix(1 0 0 1 266.45 445.53)"  >
<path style="stroke: none; stroke-width: 1; stroke-dasharray: none; stroke-linecap: butt; stroke-dashoffset: 0; stroke-linejoin: miter; stroke-miterlimit: 4; fill: rgb(20,20,19); fill-rule: nonzero; opacity: 1;" vector-effect="non-scaling-stroke"  transform=" translate(-127.45, -306.53)" d="M 127.039558 306.227356 C 127.148582 306.232819 127.421638 306.435944 127.863495 306.831604 C 127.756065 306.824402 127.479828 306.624756 127.039558 306.227356 z" stroke-linecap="round" />
</g>
<g transform="matrix(1 0 0 1 270.47 447.51)"  >
<path style="stroke: none; stroke-width: 1; stroke-dasharray: none; stroke-linecap: butt; stroke-dashoffset: 0; stroke-linejoin: miter; stroke-miterlimit: 4; fill: rgb(20,20,19); fill-rule: nonzero; opacity: 1;" vector-effect="non-scaling-stroke"  transform=" translate(-131.46, -308.5)" d="M 131.085281 308.196106 C 131.207642 308.181152 131.460007 308.387482 131.843231 308.813416 C 131.718231 308.831696 131.465286 308.626465 131.085281 308.196106 z" stroke-linecap="round" />
</g>
<g transform="matrix(1 0 0 1 272.46 448.5)"  >
<path style="stroke: none; stroke-width: 1; stroke-dasharray: none; stroke-linecap: butt; stroke-dashoffset: 0; stroke-linejoin: miter; stroke-miterlimit: 4; fill: rgb(20,20,19); fill-rule: nonzero; opacity: 1;" vector-effect="non-scaling-stroke"  transform=" translate(-133.46, -309.5)" d="M 133.087494 309.192261 C 133.206345 309.180267 133.456696 309.385498 133.837341 309.808044 C 133.7173 309.820892 133.467743 309.615601 133.087494 309.192261 z" stroke-linecap="round" />
</g>
<g transform="matrix(1 0 0 1 290.45 457.51)"  >
<path style="stroke: none; stroke-width: 1; stroke-dasharray: none; stroke-linecap: butt; stroke-dashoffset: 0; stroke-linejoin: miter; stroke-miterlimit: 4; fill: rgb(20,20,19); fill-rule: nonzero; opacity: 1;" vector-effect="non-scaling-stroke"  transform=" translate(-151.46, -318.51)" d="M 151.074249 318.201355 C 151.200409 318.181732 151.456482 318.386963 151.843872 318.814728 C 151.714493 318.838593 151.457474 318.634888 151.074249 318.201355 z" stroke-linecap="round" />
</g>
<g transform="matrix(1 0 0 1 280.49 452.51)"  >
<path style="stroke: none; stroke-width: 1; stroke-dasharray: none; stroke-linecap: butt; stroke-dashoffset: 0; stroke-linejoin: miter; stroke-miterlimit: 4; fill: rgb(20,20,19); fill-rule: nonzero; opacity: 1;" vector-effect="non-scaling-stroke"  transform=" translate(-141.49, -313.52)" d="M 141.123444 313.204163 C 141.246185 313.191711 141.489838 313.402191 141.863312 313.827667 C 141.734436 313.850006 141.484818 313.644836 141.123444 313.204163 z" stroke-linecap="round" />
</g>
<g transform="matrix(1 0 0 1 282.45 453.51)"  >
<path style="stroke: none; stroke-width: 1; stroke-dasharray: none; stroke-linecap: butt; stroke-dashoffset: 0; stroke-linejoin: miter; stroke-miterlimit: 4; fill: rgb(20,20,19); fill-rule: nonzero; opacity: 1;" vector-effect="non-scaling-stroke"  transform=" translate(-143.45, -314.52)" d="M 143.050232 314.213379 C 143.150665 314.22641 143.416397 314.428558 143.846375 314.820068 C 143.74559 314.807129 143.48056 314.604828 143.050232 314.213379 z" stroke-linecap="round" />
</g>
<g transform="matrix(1 0 0 1 286.46 455.5)"  >
<path style="stroke: none; stroke-width: 1; stroke-dasharray: none; stroke-linecap: butt; stroke-dashoffset: 0; stroke-linejoin: miter; stroke-miterlimit: 4; fill: rgb(20,20,19); fill-rule: nonzero; opacity: 1;" vector-effect="non-scaling-stroke"  transform=" translate(-147.46, -316.5)" d="M 147.090576 316.191589 C 147.209183 316.180054 147.458405 316.38559 147.83754 316.8078 C 147.717407 316.82077 147.468658 316.615479 147.090576 316.191589 z" stroke-linecap="round" />
</g>
<g transform="matrix(1 0 0 1 527.61 377.57)"  >
<path style="stroke: none; stroke-width: 1; stroke-dasharray: none; stroke-linecap: butt; stroke-dashoffset: 0; stroke-linejoin: miter; stroke-miterlimit: 4; fill: rgb(1,220,217); fill-rule: nonzero; opacity: 1;" vector-effect="non-scaling-stroke"  transform=" translate(-388.61, -238.57)" d="M 302.879395 290.04068 C 282.862793 279.931183 262.846222 269.821655 243.108383 259.303528 C 276.849487 242.162964 310.327057 225.461258 343.766754 208.684143 C 357.276855 201.905975 370.704224 194.963013 384.395081 188.009308 C 384.87616 187.694748 385.008484 187.409012 385.346741 187.036224 C 386.110199 186.956863 386.5448 186.907669 387.317932 186.921539 C 388.111572 186.939499 388.566742 186.894394 389.265656 186.911682 C 389.676239 186.956345 389.843048 186.938644 390.27243 187.138138 C 391.981537 187.987411 393.428131 188.619476 395.103638 189.50705 C 424.912628 204.588562 454.478271 219.443436 484.078339 234.229309 C 500.727936 242.546158 517.434448 250.74913 534.115295 259.003387 C 533.060242 259.942749 532.147705 261.164948 530.928833 261.779175 C 511.868103 271.384399 492.767792 280.911102 473.231262 290.224426 C 471.360352 288.913757 470.061432 287.582703 468.490356 286.792999 C 443.355469 274.158447 418.154236 261.655457 393.058899 248.943268 C 389.378693 247.079056 386.379639 247.204132 382.765289 249.038498 C 361.545288 259.808319 340.201294 270.333679 318.96106 281.064026 C 313.486145 283.829895 308.233917 287.03653 302.879395 290.04068 z" stroke-linecap="round" />
</g>
<g transform="matrix(1 0 0 1 527 428.43)"  >
<path style="stroke: none; stroke-width: 1; stroke-dasharray: none; stroke-linecap: butt; stroke-dashoffset: 0; stroke-linejoin: miter; stroke-miterlimit: 4; fill: rgb(13,221,218); fill-rule: nonzero; opacity: 1;" vector-effect="non-scaling-stroke"  transform=" translate(-388, -289.43)" d="M 303.103943 290.309052 C 308.233917 287.03653 313.486145 283.829895 318.96106 281.064026 C 340.201294 270.333679 361.545288 259.808319 382.765289 249.038498 C 386.379639 247.204132 389.378693 247.079056 393.058899 248.943268 C 418.154236 261.655457 443.355469 274.158447 468.490356 286.792999 C 470.061432 287.582703 471.360352 288.913757 472.901062 290.295135 C 448.204193 303.088501 423.217773 315.251038 398.68573 328.269745 C 391.261017 332.209869 385.6828 332.271515 378.209351 328.320282 C 353.503418 315.258209 328.325348 303.089203 303.103943 290.309052 z" stroke-linecap="round" />
</g>
<g transform="matrix(1 0 0 1 425.1 358.14)"  >
<path style="stroke: none; stroke-width: 1; stroke-dasharray: none; stroke-linecap: butt; stroke-dashoffset: 0; stroke-linejoin: miter; stroke-miterlimit: 4; fill: rgb(8,88,83); fill-rule: nonzero; opacity: 1;" vector-effect="non-scaling-stroke"  transform=" translate(-286.1, -219.14)" d="M 384.16925 188.095032 C 370.704224 194.963013 357.276855 201.905975 343.766754 208.684143 C 310.327057 225.461258 276.849487 242.162964 243.018005 258.95105 C 241.391205 258.662628 240.03569 258.514496 238.890549 257.944061 C 222.79982 249.928635 206.736069 241.85907 190.67424 233.785767 C 189.947922 233.420685 189.302094 232.895416 188.033218 232.058594 C 189.23587 231.064911 190.051605 230.09494 191.092133 229.574158 C 222.646973 213.781097 254.222641 198.029648 285.803253 182.288132 C 286.84137 181.77066 287.964783 181.424362 289.869568 180.961823 C 295.41394 180.367386 300.12793 179.481003 304.863159 179.347244 C 309.271393 179.222717 313.711945 179.802612 318.121521 180.240692 C 335.426819 181.959915 352.734222 183.665787 370.020935 185.558701 C 374.772644 186.079025 379.455048 187.232239 384.16925 188.095032 z" stroke-linecap="round" />
</g>
<g transform="matrix(1 0 0 1 631.19 361.99)"  >
<path style="stroke: none; stroke-width: 1; stroke-dasharray: none; stroke-linecap: butt; stroke-dashoffset: 0; stroke-linejoin: miter; stroke-miterlimit: 4; fill: rgb(3,87,83); fill-rule: nonzero; opacity: 1;" vector-effect="non-scaling-stroke"  transform=" translate(-492.18, -222.99)" d="M 534.483154 259.034302 C 517.434448 250.74913 500.727936 242.546158 484.078339 234.229309 C 454.478271 219.443436 424.912628 204.588562 395.447266 189.252731 C 396.518799 188.503738 397.469635 188.084808 398.43338 188.052811 C 410.056976 187.666733 421.680481 187.173935 433.307922 187.035736 C 447.683624 186.864853 462.063477 186.946548 476.440308 187.064178 C 478.531952 187.081299 480.5979 188.10994 482.709564 188.30542 C 485.86438 188.597458 489.185272 189.162903 492.177979 188.481277 C 494.555359 187.939789 495.94693 187.442627 497.616852 189.733063 C 499.7146 192.610413 501.753876 192.050232 503.029633 188.758392 C 524.369446 199.323563 545.713196 209.880722 567.046753 220.45842 C 574.178467 223.994476 581.28418 227.582977 588.920593 231.407333 C 587.734253 232.48288 587.154175 233.284927 586.369202 233.679703 C 569.999084 241.912613 553.607971 250.103745 537.210083 258.281342 C 536.476013 258.647461 535.639648 258.808624 534.483154 259.034302 z" stroke-linecap="round" />
</g>
<g transform="matrix(1 0 0 1 620.98 631.64)"  >
<path style="stroke: none; stroke-width: 1; stroke-dasharray: none; stroke-linecap: butt; stroke-dashoffset: 0; stroke-linejoin: miter; stroke-miterlimit: 4; fill: rgb(4,90,85); fill-rule: nonzero; opacity: 1;" vector-effect="non-scaling-stroke"  transform=" translate(-481.98, -492.63)" d="M 468.246857 600.006836 C 468.170441 572.018799 468.055145 544.030884 468.027161 516.042786 C 467.989502 478.385406 468.025787 440.727966 468.001678 403.070557 C 468.000397 401.089844 467.732178 399.109283 467.290192 396.778748 C 475.067383 392.60611 483.14267 388.783386 491.72525 385.255219 C 492.423889 386.186737 492.859314 386.861053 492.768494 387.454895 C 491.902771 393.115906 493.540253 398.301727 494.737396 403.783966 C 496.143646 410.223694 494.46225 417.270996 495.166992 423.944244 C 496.684418 438.312775 497.225281 452.646362 496.000916 467.043274 C 495.706024 470.511078 495.097626 473.99762 495.24411 477.449615 C 495.809418 490.770874 496.696381 504.079956 493.580475 517.249634 C 493.332367 518.298401 493.78894 519.50116 493.837769 520.635742 C 493.927917 522.730103 494.294678 524.883972 493.951874 526.912537 C 492.849762 533.434998 491.390289 539.896545 490.24704 546.412903 C 489.732513 549.345581 490.173492 552.528015 489.262085 555.294312 C 485.892212 565.522827 482.635986 575.842346 478.328735 585.686584 C 476.035767 590.927124 471.67453 595.262756 468.246857 600.006836 z" stroke-linecap="round" />
</g>
<g transform="matrix(1 0 0 1 629.07 629.57)"  >
<path style="stroke: none; stroke-width: 1; stroke-dasharray: none; stroke-linecap: butt; stroke-dashoffset: 0; stroke-linejoin: miter; stroke-miterlimit: 4; fill: rgb(7,84,80); fill-rule: nonzero; opacity: 1;" vector-effect="non-scaling-stroke"  transform=" translate(-490.07, -490.57)" d="M 468.1745 600.304871 C 471.67453 595.262756 476.035767 590.927124 478.328735 585.686584 C 482.635986 575.842346 485.892212 565.522827 489.262085 555.294312 C 490.173492 552.528015 489.732513 549.345581 490.24704 546.412903 C 491.390289 539.896545 492.849762 533.434998 493.951874 526.912537 C 494.294678 524.883972 493.927917 522.730103 493.837769 520.635742 C 493.78894 519.50116 493.332367 518.298401 493.580475 517.249634 C 496.696381 504.079956 495.809418 490.770874 495.24411 477.449615 C 495.097626 473.99762 495.706024 470.511078 496.000916 467.043274 C 497.225281 452.646362 496.684418 438.312775 495.166992 423.944244 C 494.46225 417.270996 496.143646 410.223694 494.737396 403.783966 C 493.540253 398.301727 491.902771 393.115906 492.768494 387.454895 C 492.859314 386.861053 492.423889 386.186737 492.074493 385.161041 C 497.000061 382.189331 502.08371 379.606354 507.765503 377.169586 C 509.508759 377.887024 510.65387 378.458221 511.798981 379.029419 C 511.857361 420.575378 511.933105 462.121307 511.96402 503.667267 C 511.973785 516.794983 511.863617 529.922852 511.444061 543.620789 C 509.863342 545.864868 508.292877 547.386597 507.495544 549.240723 C 504.903015 555.269592 502.796417 561.511719 500.096558 567.488281 C 498.543701 570.925781 496.579376 574.325378 494.14917 577.189514 C 488.051697 584.375732 481.557068 591.223938 475.292542 598.27063 C 474.337128 599.345337 473.758942 600.755493 472.83136 602.240234 C 472.39032 602.748047 472.124176 603.026062 471.668518 603.298523 C 471.479004 603.292908 471.100861 603.263855 470.908783 603.354187 C 470.475006 603.601685 470.278625 603.803101 469.719116 603.962708 C 469.057037 603.762268 468.803436 603.647766 468.549835 603.533325 C 468.400604 602.556519 468.251373 601.579712 468.1745 600.304871 z" stroke-linecap="round" />
</g>
<g transform="matrix(1 0 0 1 585.65 313.39)"  >
<path style="stroke: none; stroke-width: 1; stroke-dasharray: none; stroke-linecap: butt; stroke-dashoffset: 0; stroke-linejoin: miter; stroke-miterlimit: 4; fill: rgb(7,76,72); fill-rule: nonzero; opacity: 1;" vector-effect="non-scaling-stroke"  transform=" translate(-446.64, -174.39)" d="M 502.779388 188.542694 C 501.753876 192.050232 499.7146 192.610413 497.616852 189.733063 C 495.94693 187.442627 494.555359 187.939789 492.177979 188.481277 C 489.185272 189.162903 485.86438 188.597458 482.709564 188.30542 C 480.5979 188.10994 478.531952 187.081299 476.440308 187.064178 C 462.063477 186.946548 447.683624 186.864853 433.307922 187.035736 C 421.680481 187.173935 410.056976 187.666733 398.43338 188.052811 C 397.469635 188.084808 396.518799 188.503738 395.218323 188.997223 C 393.428131 188.619476 391.981537 187.987411 390.508362 186.909775 C 392.874878 184.699356 395.123871 182.683868 397.685059 181.211349 C 411.734833 173.13353 425.861084 165.188766 439.96109 157.198334 C 451.163025 162.69873 462.385864 168.157028 473.560516 173.71228 C 483.245117 178.526794 492.875061 183.451172 502.779388 188.542694 z" stroke-linecap="round" />
</g>
<g transform="matrix(1 0 0 1 476.62 313.07)"  >
<path style="stroke: none; stroke-width: 1; stroke-dasharray: none; stroke-linecap: butt; stroke-dashoffset: 0; stroke-linejoin: miter; stroke-miterlimit: 4; fill: rgb(7,76,72); fill-rule: nonzero; opacity: 1;" vector-effect="non-scaling-stroke"  transform=" translate(-337.62, -174.07)" d="M 384.395081 188.009308 C 379.455048 187.232239 374.772644 186.079025 370.020935 185.558701 C 352.734222 183.665787 335.426819 181.959915 318.121521 180.240692 C 313.711945 179.802612 309.271393 179.222717 304.863159 179.347244 C 300.12793 179.481003 295.41394 180.367386 290.220093 180.88678 C 294.813965 178.098053 299.807281 175.205688 304.958771 172.629562 C 313.662811 168.276855 322.466919 164.124298 331.78476 160.134613 C 332.955383 160.922516 333.484528 161.652435 334.197937 161.975861 C 344.428772 166.613785 354.668243 171.233521 364.940125 175.779724 C 371.268494 178.580582 377.655426 181.24913 384.255371 183.993759 C 384.49469 184.010422 384.974426 184.027634 384.983826 184.405441 C 385.001495 185.544296 385.009705 186.305328 385.017914 187.066376 C 385.008484 187.409012 384.87616 187.694748 384.395081 188.009308 z" stroke-linecap="round" />
</g>
<g transform="matrix(1 0 0 1 631.34 712.05)"  >
<path style="stroke: none; stroke-width: 1; stroke-dasharray: none; stroke-linecap: butt; stroke-dashoffset: 0; stroke-linejoin: miter; stroke-miterlimit: 4; fill: rgb(7,76,72); fill-rule: nonzero; opacity: 1;" vector-effect="non-scaling-stroke"  transform=" translate(-492.33, -573.05)" d="M 473.006287 602.010498 C 473.758942 600.755493 474.337128 599.345337 475.292542 598.27063 C 481.557068 591.223938 488.051697 584.375732 494.14917 577.189514 C 496.579376 574.325378 498.543701 570.925781 500.096558 567.488281 C 502.796417 561.511719 504.903015 555.269592 507.495544 549.240723 C 508.292877 547.386597 509.863342 545.864868 511.391296 544.085327 C 511.732727 556.308777 511.762665 568.637817 511.426025 581.485474 C 504.790802 585.722534 498.656097 589.695251 492.215363 593.086792 C 485.976013 596.372192 479.422058 599.06012 473.006287 602.010498 z" stroke-linecap="round" />
</g>
<g transform="matrix(1 0 0 1 497.08 307.02)"  >
<path style="stroke: none; stroke-width: 1; stroke-dasharray: none; stroke-linecap: butt; stroke-dashoffset: 0; stroke-linejoin: miter; stroke-miterlimit: 4; fill: rgb(8,58,54); fill-rule: nonzero; opacity: 1;" vector-effect="non-scaling-stroke"  transform=" translate(-358.08, -168.02)" d="M 384.016052 183.977112 C 377.655426 181.24913 371.268494 178.580582 364.940125 175.779724 C 354.668243 171.233521 344.428772 166.613785 334.197937 161.975861 C 333.484528 161.652435 332.955383 160.922516 332.150208 160.061462 C 337.052124 157.196533 342.144379 154.651764 347.96521 152.062225 C 352.289062 154.559525 356.130432 156.819839 359.429199 159.701324 C 366.655609 166.01355 373.654663 172.590179 380.630341 179.181824 C 382.024475 180.499222 382.900879 182.364471 384.016052 183.977112 z" stroke-linecap="round" />
</g>
<g transform="matrix(1 0 0 1 514.95 295.18)"  >
<path style="stroke: none; stroke-width: 1; stroke-dasharray: none; stroke-linecap: butt; stroke-dashoffset: 0; stroke-linejoin: miter; stroke-miterlimit: 4; fill: rgb(7,32,28); fill-rule: nonzero; opacity: 1;" vector-effect="non-scaling-stroke"  transform=" translate(-375.95, -156.18)" d="M 364.998932 142.993286 C 372.06488 139.662781 379.130798 136.332291 386.599182 133.460266 C 386.990295 148.938431 386.978973 163.958099 386.634705 178.892151 C 384.614624 176.266602 382.799469 173.801483 381.263367 171.173279 C 375.790588 161.809937 370.41272 152.391113 364.998932 142.993286 z" stroke-linecap="round" />
</g>
<g transform="matrix(1 0 0 1 537.84 294.71)"  >
<path style="stroke: none; stroke-width: 1; stroke-dasharray: none; stroke-linecap: butt; stroke-dashoffset: 0; stroke-linejoin: miter; stroke-miterlimit: 4; fill: rgb(7,32,28); fill-rule: nonzero; opacity: 1;" vector-effect="non-scaling-stroke"  transform=" translate(-398.83, -155.71)" d="M 389.257599 132.919357 C 395.681549 135.783524 402.10553 138.64769 408.591675 142.045547 C 407.876038 143.851242 406.964508 145.061295 406.341705 146.405151 C 401.892975 156.004456 397.586517 165.671036 393.00946 175.208069 C 392.276794 176.73468 390.416473 177.720108 389.075104 178.491333 C 389.134369 162.991089 389.195984 147.955215 389.257599 132.919357 z" stroke-linecap="round" />
</g>
<g transform="matrix(1 0 0 1 506.66 302.58)"  >
<path style="stroke: none; stroke-width: 1; stroke-dasharray: none; stroke-linecap: butt; stroke-dashoffset: 0; stroke-linejoin: miter; stroke-miterlimit: 4; fill: rgb(8,43,38); fill-rule: nonzero; opacity: 1;" vector-effect="non-scaling-stroke"  transform=" translate(-367.66, -163.58)" d="M 364.674683 143.139679 C 370.41272 152.391113 375.790588 161.809937 381.263367 171.173279 C 382.799469 173.801483 384.614624 176.266602 386.64563 179.310791 C 386.990631 181.20787 386.991791 182.600693 386.99646 183.996689 C 387 183.999863 386.994385 183.995239 386.658203 183.997574 C 385.872833 184.009155 385.423615 184.018402 384.974426 184.027634 C 384.974426 184.027634 384.49469 184.010422 384.255371 183.993774 C 382.900879 182.364471 382.024475 180.499222 380.630341 179.181824 C 373.654663 172.590179 366.655609 166.01355 359.429199 159.701324 C 356.130432 156.819839 352.289062 154.559525 348.322449 151.974991 C 353.417603 149.050354 358.884033 146.168198 364.674683 143.139679 z" stroke-linecap="round" />
</g>
<g transform="matrix(1 0 0 1 545.32 302.01)"  >
<path style="stroke: none; stroke-width: 1; stroke-dasharray: none; stroke-linecap: butt; stroke-dashoffset: 0; stroke-linejoin: miter; stroke-miterlimit: 4; fill: rgb(8,43,38); fill-rule: nonzero; opacity: 1;" vector-effect="non-scaling-stroke"  transform=" translate(-406.31, -163.01)" d="M 389.077454 178.955719 C 390.416473 177.720108 392.276794 176.73468 393.00946 175.208069 C 397.586517 165.671036 401.892975 156.004456 406.341705 146.405151 C 406.964508 145.061295 407.876038 143.851242 408.835236 142.284988 C 413.937286 144.432098 418.858002 146.873444 423.63559 149.815216 C 416.71106 157.282135 410.032135 164.352478 403.111816 171.178131 C 398.600647 175.627609 393.738708 179.721466 389.017517 183.738129 C 389.001099 183.501617 388.979401 183.027145 388.987061 182.62056 C 389.022278 181.127884 389.049866 180.041809 389.077454 178.955719 z" stroke-linecap="round" />
</g>
<g transform="matrix(1 0 0 1 553.37 307.49)"  >
<path style="stroke: none; stroke-width: 1; stroke-dasharray: none; stroke-linecap: butt; stroke-dashoffset: 0; stroke-linejoin: miter; stroke-miterlimit: 4; fill: rgb(8,58,54); fill-rule: nonzero; opacity: 1;" vector-effect="non-scaling-stroke"  transform=" translate(-414.37, -168.5)" d="M 389.033936 183.974625 C 393.738708 179.721466 398.600647 175.627609 403.111816 171.178131 C 410.032135 164.352478 416.71106 157.282135 423.775635 150.124573 C 429.19455 152.18634 434.330322 154.439194 439.713593 156.94519 C 425.861084 165.188766 411.734833 173.13353 397.685059 181.211349 C 395.123871 182.683868 392.874878 184.699356 390.24585 186.692566 C 389.843048 186.938644 389.676239 186.956345 389.261719 186.552856 C 389.02063 185.412643 389.027283 184.693634 389.033936 183.974625 z" stroke-linecap="round" />
</g>
<g transform="matrix(1 0 0 1 630.79 732.36)"  >
<path style="stroke: none; stroke-width: 1; stroke-dasharray: none; stroke-linecap: butt; stroke-dashoffset: 0; stroke-linejoin: miter; stroke-miterlimit: 4; fill: rgb(8,58,54); fill-rule: nonzero; opacity: 1;" vector-effect="non-scaling-stroke"  transform=" translate(-491.79, -593.36)" d="M 472.83136 602.240234 C 479.422058 599.06012 485.976013 596.372192 492.215363 593.086792 C 498.656097 589.695251 504.790802 585.722534 511.394257 581.945801 C 511.781647 587.572632 511.834229 593.257751 511.483246 599.439392 C 510.253418 600.006653 509.419006 600.026062 508.602112 600.155762 C 498.810242 601.710205 489.042664 603.448181 479.215149 604.725952 C 476.864166 605.031677 474.315735 603.818604 471.858093 603.304138 C 472.124176 603.026062 472.39032 602.748047 472.83136 602.240234 z" stroke-linecap="round" />
</g>
<g transform="matrix(1 0 0 1 629.21 745.97)"  >
<path style="stroke: none; stroke-width: 1; stroke-dasharray: none; stroke-linecap: butt; stroke-dashoffset: 0; stroke-linejoin: miter; stroke-miterlimit: 4; fill: rgb(7,32,28); fill-rule: nonzero; opacity: 1;" vector-effect="non-scaling-stroke"  transform=" translate(-490.22, -606.97)" d="M 471.668549 603.298523 C 474.315735 603.818604 476.864166 605.031677 479.215149 604.725952 C 489.042664 603.448181 498.810242 601.710205 508.602112 600.155762 C 509.419006 600.026062 510.253418 600.006653 511.485718 599.898682 C 511.925079 604.263 511.958466 608.664734 511.989807 613.530884 C 496.870056 615.038635 482.27417 613.53418 468.774963 604.977234 C 468.440979 604.543274 468.407806 604.338318 468.462219 603.833374 C 468.803436 603.647766 469.057037 603.762268 469.900269 603.856934 C 470.722046 603.676453 470.92572 603.485352 471.100861 603.263855 C 471.100861 603.263855 471.479004 603.292908 471.668549 603.298523 z" stroke-linecap="round" />
</g>
<g transform="matrix(1 0 0 1 527.07 297.34)"  >
<path style="stroke: none; stroke-width: 1; stroke-dasharray: none; stroke-linecap: butt; stroke-dashoffset: 0; stroke-linejoin: miter; stroke-miterlimit: 4; fill: rgb(8,58,54); fill-rule: nonzero; opacity: 1;" vector-effect="non-scaling-stroke"  transform=" translate(-388.07, -158.34)" d="M 389.075104 178.491333 C 389.049866 180.041809 389.022278 181.127884 388.733521 182.727844 C 387.979218 183.49231 387.486084 183.742905 386.992981 183.9935 C 386.991791 182.600693 386.990631 181.20787 386.978516 179.396423 C 386.978973 163.958099 386.990295 148.938431 386.983002 133.447815 C 387.64444 132.808594 388.324554 132.640289 389.131104 132.695679 C 389.195984 147.955215 389.134369 162.991089 389.075104 178.491333 z" stroke-linecap="round" />
</g>
<g transform="matrix(1 0 0 1 648.98 516.03)"  >
<path style="stroke: none; stroke-width: 1; stroke-dasharray: none; stroke-linecap: butt; stroke-dashoffset: 0; stroke-linejoin: miter; stroke-miterlimit: 4; fill: rgb(7,76,72); fill-rule: nonzero; opacity: 1;" vector-effect="non-scaling-stroke"  transform=" translate(-509.98, -377.03)" d="M 511.848999 378.674133 C 510.65387 378.458221 509.508759 377.887024 508.112244 377.086853 C 510.155365 374.723022 511.783417 374.430603 511.848999 378.674133 z" stroke-linecap="round" />
</g>
<g transform="matrix(1 0 0 1 487.83 656.35)"  >
<path style="stroke: none; stroke-width: 1; stroke-dasharray: none; stroke-linecap: butt; stroke-dashoffset: 0; stroke-linejoin: miter; stroke-miterlimit: 4; fill: rgb(1,220,217); fill-rule: nonzero; opacity: 1;" vector-effect="non-scaling-stroke"  transform=" translate(-348.83, -517.34)" d="M 389.633484 638.154358 C 387.855103 637.942078 385.677551 637.823303 383.882965 636.9328 C 359.426666 624.797363 335.023376 612.554993 310.172913 600.050049 C 309.397034 599.330444 309.055298 598.899841 308.69751 598.198486 C 308.407562 597.549316 308.133636 597.170959 308.03009 596.671021 C 308.2005 596.5495 308.240479 596.161316 308.240479 596.161316 C 308.240479 596.161316 307.901611 595.97821 308.200348 595.764221 C 308.611816 593.396912 308.822357 591.243652 308.822998 589.090332 C 308.841492 527.109802 308.826385 465.129303 308.891113 403.148834 C 308.893433 400.943909 309.651794 398.739807 310.0578 396.535309 C 324.577759 403.831177 339.097717 411.127045 353.804993 418.716095 C 353.818237 423.295319 353.64505 427.58139 353.469849 431.867401 C 353.314667 435.663666 353.028259 439.459686 353.021759 443.256165 C 352.980499 467.421692 353.000793 491.58728 353.000671 515.752869 C 353.000641 526.899048 352.999023 538.045288 353.000549 549.191467 C 353.001526 556.303528 353.103333 563.417358 352.975708 570.5271 C 352.894165 575.067566 354.777466 578.028687 358.885529 579.991333 C 366.703949 583.726562 374.312378 587.911316 382.195007 591.498352 C 386.646423 593.524048 388.23819 596.40332 388.092865 601.230652 C 387.787109 611.387634 387.924255 621.56134 388.065247 631.725586 C 388.093842 633.78595 388.942017 635.8349 389.633484 638.154358 z" stroke-linecap="round" />
</g>
<g transform="matrix(1 0 0 1 435.43 629.73)"  >
<path style="stroke: none; stroke-width: 1; stroke-dasharray: none; stroke-linecap: butt; stroke-dashoffset: 0; stroke-linejoin: miter; stroke-miterlimit: 4; fill: rgb(4,90,85); fill-rule: nonzero; opacity: 1;" vector-effect="non-scaling-stroke"  transform=" translate(-296.43, -490.72)" d="M 309.793335 396.317017 C 309.651794 398.739807 308.893433 400.943909 308.891113 403.148834 C 308.826385 465.129303 308.841492 527.109802 308.822998 589.090332 C 308.822357 591.243652 308.611816 593.396912 307.769958 595.461121 C 306.024506 593.91687 305.008148 592.461731 303.964355 590.624146 C 303.677887 589.283203 303.530121 588.276978 303.143219 587.373169 C 297.261139 573.63147 292.254486 559.553833 289.602661 544.849915 C 287.485321 533.109558 285.990295 521.197815 285.195923 509.296997 C 284.575653 500.005249 285.478973 490.6138 285.641296 481.265533 C 285.663361 479.994293 285.348877 478.710388 285.12851 477.443054 C 284.557495 474.159241 283.546967 470.891968 283.460724 467.59848 C 283.347534 463.276093 284.16803 458.935028 284.16983 454.601807 C 284.170959 451.838196 282.956726 449.053558 283.079803 446.313965 C 283.652893 433.558929 284.515228 420.817017 285.234497 408.068207 C 285.316071 406.622437 284.986755 405.147064 285.124664 403.712006 C 285.693207 397.797699 286.368439 391.893707 287.004456 385.985901 C 292.666321 388.680878 298.310242 391.414612 304.000641 394.047913 C 305.7789 394.87088 307.682617 395.422729 309.793335 396.317017 z" stroke-linecap="round" />
</g>
<g transform="matrix(1 0 0 1 423.34 623.18)"  >
<path style="stroke: none; stroke-width: 1; stroke-dasharray: none; stroke-linecap: butt; stroke-dashoffset: 0; stroke-linejoin: miter; stroke-miterlimit: 4; fill: rgb(7,84,80); fill-rule: nonzero; opacity: 1;" vector-effect="non-scaling-stroke"  transform=" translate(-284.34, -484.18)" d="M 286.770874 385.737549 C 286.368439 391.893707 285.693207 397.797699 285.124664 403.712006 C 284.986755 405.147064 285.316071 406.622437 285.234497 408.068207 C 284.515228 420.817017 283.652893 433.558929 283.079803 446.313965 C 282.956726 449.053558 284.170959 451.838196 284.16983 454.601807 C 284.16803 458.935028 283.347534 463.276093 283.460724 467.59848 C 283.546967 470.891968 284.557495 474.159241 285.12851 477.443054 C 285.348877 478.710388 285.663361 479.994293 285.641296 481.265533 C 285.478973 490.6138 284.575653 500.005249 285.195923 509.296997 C 285.990295 521.197815 287.485321 533.109558 289.602661 544.849915 C 292.254486 559.553833 297.261139 573.63147 303.143219 587.373169 C 303.530121 588.276978 303.677887 589.283203 303.606506 590.594238 C 302.185059 590.284546 300.863617 589.832947 300.03714 588.928894 C 284.843231 572.307495 275.335144 552.680237 269.85437 531.009399 C 269.232178 528.549377 269.497711 525.788696 269.739868 523.203796 C 270.128815 519.051941 269.646454 515.531982 265.058838 513.995972 C 265.04303 512.930908 265.027191 511.865845 265.386963 510.293274 C 268.913483 506.34726 268.730255 503.729004 265.077667 499.998505 C 265.056488 486.977295 265.035309 473.956085 265.361359 460.298767 C 266.837677 456.352173 269.729889 452.926147 265.075348 449.994446 C 265.047638 448.929169 265.019928 447.863861 265.332214 446.255371 C 268.444458 442.287689 269.436005 438.974792 265.06366 435.997864 C 265.038788 426.644135 265.013885 417.290405 265.344543 407.317078 C 269.125549 401.674774 268.919922 398.150391 265.075439 395.989532 C 265.059448 394.606934 265.043457 393.224365 265.415436 391.393768 C 267.423615 388.983093 269.595398 387.243286 270.504639 384.993286 C 271.366119 382.86145 270.903931 380.194702 271.023865 377.763184 C 276.195007 380.338501 281.366119 382.913849 286.770874 385.737549 z" stroke-linecap="round" />
</g>
<g transform="matrix(1 0 0 1 338.74 706.26)"  >
<path style="stroke: none; stroke-width: 1; stroke-dasharray: none; stroke-linecap: butt; stroke-dashoffset: 0; stroke-linejoin: miter; stroke-miterlimit: 4; fill: rgb(6,98,93); fill-rule: nonzero; opacity: 1;" vector-effect="non-scaling-stroke"  transform=" translate(-199.74, -567.26)" d="M 182.348297 536.927734 C 192.188187 541.280518 201.853241 546.045654 211.552612 550.739929 C 213.310593 551.590759 215.209076 552.151306 217.401733 552.810791 C 217.760742 567.284424 217.760742 581.793152 217.760742 597.58667 C 214.088287 595.77655 211.783325 594.640442 209.226959 592.887817 C 206.844757 587.889648 204.715302 583.507263 202.58287 579.126404 C 197.880615 569.466187 193.320358 559.732483 188.389557 550.190308 C 186.833618 547.17926 184.283997 544.681641 182.122589 541.706116 C 182.009964 541.30188 181.963913 541.140503 181.915039 540.63623 C 181.849014 539.840332 181.785843 539.387451 181.722656 538.934509 C 181.876846 538.394897 182.031036 537.855347 182.348297 536.927734 z" stroke-linecap="round" />
</g>
<g transform="matrix(1 0 0 1 425.62 694.54)"  >
<path style="stroke: none; stroke-width: 1; stroke-dasharray: none; stroke-linecap: butt; stroke-dashoffset: 0; stroke-linejoin: miter; stroke-miterlimit: 4; fill: rgb(7,76,72); fill-rule: nonzero; opacity: 1;" vector-effect="non-scaling-stroke"  transform=" translate(-286.63, -555.55)" d="M 265.012054 514.463013 C 269.646454 515.531982 270.128815 519.051941 269.739868 523.203796 C 269.497711 525.788696 269.232178 528.549377 269.85437 531.009399 C 275.335144 552.680237 284.843231 572.307495 300.03714 588.928894 C 300.863617 589.832947 302.185059 590.284546 303.633942 590.976685 C 305.008148 592.461731 306.024506 593.91687 307.471252 595.67511 C 307.901611 595.97821 308.240479 596.161316 308.240479 596.161316 C 308.240479 596.161316 308.2005 596.5495 307.489319 596.627014 C 302.90155 595.27832 298.821014 594.243652 295.187347 592.351013 C 285.062134 587.077332 275.122253 581.447754 265.109222 575.958679 C 265.061249 555.615845 265.013245 535.272949 265.012054 514.463013 z" stroke-linecap="round" />
</g>
<g transform="matrix(1 0 0 1 468.97 773.37)"  >
<path style="stroke: none; stroke-width: 1; stroke-dasharray: none; stroke-linecap: butt; stroke-dashoffset: 0; stroke-linejoin: miter; stroke-miterlimit: 4; fill: rgb(4,90,85); fill-rule: nonzero; opacity: 1;" vector-effect="non-scaling-stroke"  transform=" translate(-329.98, -634.37)" d="M 309.167725 604.963196 C 310.872131 606.52301 313.169769 607.771362 314.180084 609.695618 C 319.016174 618.906555 323.176788 628.481323 328.20755 637.578369 C 333.167877 646.548096 340.529175 653.593018 348.451355 660.036011 C 349.494965 660.884766 350.099945 662.272827 350.919312 663.786377 C 339.795258 658.598328 328.660034 653.035034 317.258057 646.82312 C 315.203674 634.376587 313.469482 622.569763 311.53656 610.795654 C 311.364777 609.749512 309.899231 608.915771 309.032043 607.605835 C 309.075562 606.473328 309.121643 605.718262 309.167725 604.963196 z" stroke-linecap="round" />
</g>
<g transform="matrix(1 0 0 1 334.5 706.31)"  >
<path style="stroke: none; stroke-width: 1; stroke-dasharray: none; stroke-linecap: butt; stroke-dashoffset: 0; stroke-linejoin: miter; stroke-miterlimit: 4; fill: rgb(8,88,83); fill-rule: nonzero; opacity: 1;" vector-effect="non-scaling-stroke"  transform=" translate(-195.5, -567.31)" d="M 182.189163 541.949036 C 184.283997 544.681641 186.833618 547.17926 188.389557 550.190308 C 193.320358 559.732483 197.880615 569.466187 202.58287 579.126404 C 204.715302 583.507263 206.844757 587.889648 208.975586 592.662598 C 202.752167 589.981384 196.528748 586.908813 190.038208 583.198181 C 187.852325 571.243164 185.980194 559.917908 183.962082 548.618713 C 183.6754 547.013489 182.679474 545.534912 182.024338 543.655273 C 182.087631 542.858154 182.138397 542.403625 182.189163 541.949036 z" stroke-linecap="round" />
</g>
<g transform="matrix(1 0 0 1 425.16 756.53)"  >
<path style="stroke: none; stroke-width: 1; stroke-dasharray: none; stroke-linecap: butt; stroke-dashoffset: 0; stroke-linejoin: miter; stroke-miterlimit: 4; fill: rgb(7,32,28); fill-rule: nonzero; opacity: 1;" vector-effect="non-scaling-stroke"  transform=" translate(-286.16, -617.53)" d="M 286.990234 632.014282 C 280.711761 628.612549 274.433319 625.210815 268.336548 621.27002 C 270.834991 619.49585 273.141571 618.24115 275.470367 617.029236 C 284.348297 612.409119 293.233398 607.802734 302.428711 603.137451 C 303.162048 603.028381 303.582428 602.973022 303.975067 603.283508 C 300.764099 608.472412 297.417267 613.197266 294.446014 618.147522 C 291.74826 622.642212 289.459381 627.382385 286.990234 632.014282 z" stroke-linecap="round" />
</g>
<g transform="matrix(1 0 0 1 421.08 749.3)"  >
<path style="stroke: none; stroke-width: 1; stroke-dasharray: none; stroke-linecap: butt; stroke-dashoffset: 0; stroke-linejoin: miter; stroke-miterlimit: 4; fill: rgb(7,32,28); fill-rule: nonzero; opacity: 1;" vector-effect="non-scaling-stroke"  transform=" translate(-282.08, -610.29)" d="M 265.887085 621.039124 C 265.59314 614.001953 265.299164 606.964844 265.413544 599.548889 C 274.649963 599.781677 283.480774 600.357239 292.304199 601.029785 C 294.553162 601.201172 296.778656 601.680115 298.762268 602.245728 C 289.253967 607.346863 279.96759 612.163208 270.769257 617.142334 C 268.966858 618.117981 267.505646 619.723877 265.887085 621.039124 z" stroke-linecap="round" />
</g>
<g transform="matrix(1 0 0 1 308.42 694.99)"  >
<path style="stroke: none; stroke-width: 1; stroke-dasharray: none; stroke-linecap: butt; stroke-dashoffset: 0; stroke-linejoin: miter; stroke-miterlimit: 4; fill: rgb(8,43,38); fill-rule: nonzero; opacity: 1;" vector-effect="non-scaling-stroke"  transform=" translate(-169.42, -555.99)" d="M 181.388489 538.973694 C 181.785843 539.387451 181.849014 539.840332 181.594788 540.768188 C 180.659027 541.990967 179.7733 542.642334 179.463135 543.501465 C 175.918228 553.320312 172.461014 563.170837 168.980392 573.012878 C 165.182449 571.127014 161.384506 569.241211 157.294098 567.178894 C 156.565674 563.288635 157.832596 560.410461 160.610977 557.79303 C 166.434158 552.30719 171.952118 546.498535 177.681259 540.9104 C 178.573578 540.040039 179.918594 539.633728 181.388489 538.973694 z" stroke-linecap="round" />
</g>
<g transform="matrix(1 0 0 1 424.43 734.27)"  >
<path style="stroke: none; stroke-width: 1; stroke-dasharray: none; stroke-linecap: butt; stroke-dashoffset: 0; stroke-linejoin: miter; stroke-miterlimit: 4; fill: rgb(8,43,38); fill-rule: nonzero; opacity: 1;" vector-effect="non-scaling-stroke"  transform=" translate(-285.43, -595.27)" d="M 299.014954 602.017761 C 296.778656 601.680115 294.553162 601.201172 292.304199 601.029785 C 283.480774 600.357239 274.649963 599.781677 265.420349 599.079712 C 265.020538 595.621887 265.022247 592.254456 265.40332 588.515015 C 279.177856 591.749573 292.573029 595.35614 305.744507 599.19397 C 304.030518 600.29364 302.540131 601.161987 300.710571 602.023438 C 299.91925 602.017029 299.467102 602.017395 299.014954 602.017761 z" stroke-linecap="round" />
</g>
<g transform="matrix(1 0 0 1 425.62 726.69)"  >
<path style="stroke: none; stroke-width: 1; stroke-dasharray: none; stroke-linecap: butt; stroke-dashoffset: 0; stroke-linejoin: miter; stroke-miterlimit: 4; fill: rgb(8,58,54); fill-rule: nonzero; opacity: 1;" vector-effect="non-scaling-stroke"  transform=" translate(-286.62, -587.69)" d="M 305.96817 598.962646 C 292.573029 595.35614 279.177856 591.749573 265.42337 588.05542 C 265.047485 584.273132 265.030975 580.578369 265.061829 576.421143 C 275.122253 581.447754 285.062134 587.077332 295.187347 592.351013 C 298.821014 594.243652 302.90155 595.27832 307.318939 596.748535 C 308.133636 597.170959 308.407562 597.549316 308.010498 598.319214 C 306.882416 598.794739 306.425293 598.878723 305.96817 598.962646 z" stroke-linecap="round" />
</g>
<g transform="matrix(1 0 0 1 450.54 766.3)"  >
<path style="stroke: none; stroke-width: 1; stroke-dasharray: none; stroke-linecap: butt; stroke-dashoffset: 0; stroke-linejoin: miter; stroke-miterlimit: 4; fill: rgb(7,76,72); fill-rule: nonzero; opacity: 1;" vector-effect="non-scaling-stroke"  transform=" translate(-311.54, -627.3)" d="M 309.034576 607.983337 C 309.899231 608.915771 311.364777 609.749512 311.53656 610.795654 C 313.469482 622.569763 315.203674 634.376587 316.983826 646.619873 C 313.408997 645.290161 309.841644 643.515198 306.088867 641.029907 C 306.268311 634.220825 306.482849 628.108093 307.046539 622.027771 C 307.482483 617.325256 308.355713 612.66333 309.034576 607.983337 z" stroke-linecap="round" />
</g>
<g transform="matrix(1 0 0 1 435.73 758.62)"  >
<path style="stroke: none; stroke-width: 1; stroke-dasharray: none; stroke-linecap: butt; stroke-dashoffset: 0; stroke-linejoin: miter; stroke-miterlimit: 4; fill: rgb(8,43,38); fill-rule: nonzero; opacity: 1;" vector-effect="non-scaling-stroke"  transform=" translate(-296.73, -619.62)" d="M 287.281067 632.192322 C 289.459381 627.382385 291.74826 622.642212 294.446014 618.147522 C 297.417267 613.197266 300.764099 608.472412 304.179932 603.093567 C 304.932617 602.335266 305.452667 602.132751 306.176819 602.231567 C 305.158295 607.56488 304.055786 612.630005 302.683197 617.620789 C 300.896118 624.11908 298.894684 630.558289 296.985474 637.022949 C 293.847626 635.472046 290.709778 633.921204 287.281067 632.192322 z" stroke-linecap="round" />
</g>
<g transform="matrix(1 0 0 1 442.19 759.89)"  >
<path style="stroke: none; stroke-width: 1; stroke-dasharray: none; stroke-linecap: butt; stroke-dashoffset: 0; stroke-linejoin: miter; stroke-miterlimit: 4; fill: rgb(8,58,54); fill-rule: nonzero; opacity: 1;" vector-effect="non-scaling-stroke"  transform=" translate(-303.19, -620.89)" d="M 297.241547 637.248779 C 298.894684 630.558289 300.896118 624.11908 302.683197 617.620789 C 304.055786 612.630005 305.158295 607.56488 306.444519 602.043823 C 307.356476 601.367065 308.204834 601.179321 309.053192 600.991577 C 309.069061 602.051819 309.0849 603.111938 309.134216 604.567627 C 309.121643 605.718262 309.075562 606.473328 309.032043 607.605835 C 308.355713 612.66333 307.482483 617.325256 307.046539 622.027771 C 306.482849 628.108093 306.268311 634.220825 305.852417 640.787354 C 303.033478 639.994995 300.265533 638.734802 297.241547 637.248779 z" stroke-linecap="round" />
</g>
<g transform="matrix(1 0 0 1 314.68 698.56)"  >
<path style="stroke: none; stroke-width: 1; stroke-dasharray: none; stroke-linecap: butt; stroke-dashoffset: 0; stroke-linejoin: miter; stroke-miterlimit: 4; fill: rgb(8,58,54); fill-rule: nonzero; opacity: 1;" vector-effect="non-scaling-stroke"  transform=" translate(-175.68, -559.56)" d="M 169.232193 573.242065 C 172.461014 563.170837 175.918228 553.320312 179.463135 543.501465 C 179.7733 542.642334 180.659027 541.990967 181.597641 541.111145 C 181.963913 541.140503 182.009964 541.30188 182.122589 541.706116 C 182.138397 542.403625 182.087631 542.858154 181.978348 544.073059 C 180.94191 555.895142 179.963974 566.956909 178.986053 578.018677 C 175.818695 576.50293 172.651352 574.987122 169.232193 573.242065 z" stroke-linecap="round" />
</g>
<g transform="matrix(1 0 0 1 323.52 702.7)"  >
<path style="stroke: none; stroke-width: 1; stroke-dasharray: none; stroke-linecap: butt; stroke-dashoffset: 0; stroke-linejoin: miter; stroke-miterlimit: 4; fill: rgb(7,76,72); fill-rule: nonzero; opacity: 1;" vector-effect="non-scaling-stroke"  transform=" translate(-184.52, -563.69)" d="M 179.243408 578.241455 C 179.963974 566.956909 180.94191 555.895142 181.965836 544.415527 C 182.679474 545.534912 183.6754 547.013489 183.962082 548.618713 C 185.980194 559.917908 187.852325 571.243164 189.793671 582.971497 C 186.377762 581.743408 182.93927 580.103882 179.243408 578.241455 z" stroke-linecap="round" />
</g>
<g transform="matrix(1 0 0 1 423.17 750.58)"  >
<path style="stroke: none; stroke-width: 1; stroke-dasharray: none; stroke-linecap: butt; stroke-dashoffset: 0; stroke-linejoin: miter; stroke-miterlimit: 4; fill: rgb(8,58,54); fill-rule: nonzero; opacity: 1;" vector-effect="non-scaling-stroke"  transform=" translate(-284.17, -611.59)" d="M 298.762268 602.245728 C 299.467102 602.017395 299.91925 602.017029 300.869324 602.231384 C 301.61676 602.694458 301.866272 602.94281 302.115784 603.191223 C 293.233398 607.802734 284.348297 612.409119 275.470367 617.029236 C 273.141571 618.24115 270.834991 619.49585 268.232849 620.948181 C 267.490448 621.140198 267.033356 621.114929 266.231689 621.064392 C 267.505646 619.723877 268.966858 618.117981 270.769257 617.142334 C 279.96759 612.163208 289.253967 607.346863 298.762268 602.245728 z" stroke-linecap="round" />
</g>
<g transform="matrix(1 0 0 1 407.05 522.03)"  >
<path style="stroke: none; stroke-width: 1; stroke-dasharray: none; stroke-linecap: butt; stroke-dashoffset: 0; stroke-linejoin: miter; stroke-miterlimit: 4; fill: rgb(7,76,72); fill-rule: nonzero; opacity: 1;" vector-effect="non-scaling-stroke"  transform=" translate(-268.05, -383.03)" d="M 270.764465 377.561523 C 270.903931 380.194702 271.366119 382.86145 270.504639 384.993286 C 269.595398 387.243286 267.423615 388.983093 265.446838 390.979736 C 265.090271 386.002228 265.090271 380.990784 265.090271 375.079163 C 267.386932 376.046509 268.946014 376.703156 270.764465 377.561523 z" stroke-linecap="round" />
</g>
<g transform="matrix(1 0 0 1 405.54 540.65)"  >
<path style="stroke: none; stroke-width: 1; stroke-dasharray: none; stroke-linecap: butt; stroke-dashoffset: 0; stroke-linejoin: miter; stroke-miterlimit: 4; fill: rgb(7,76,72); fill-rule: nonzero; opacity: 1;" vector-effect="non-scaling-stroke"  transform=" translate(-266.55, -401.65)" d="M 265.029724 396.446777 C 268.919922 398.150391 269.125549 401.674774 265.377594 406.849518 C 265.031372 403.635712 265.00766 400.269867 265.029724 396.446777 z" stroke-linecap="round" />
</g>
<g transform="matrix(1 0 0 1 405.48 644.17)"  >
<path style="stroke: none; stroke-width: 1; stroke-dasharray: none; stroke-linecap: butt; stroke-dashoffset: 0; stroke-linejoin: miter; stroke-miterlimit: 4; fill: rgb(7,76,72); fill-rule: nonzero; opacity: 1;" vector-effect="non-scaling-stroke"  transform=" translate(-266.48, -505.17)" d="M 265.030853 500.450806 C 268.730255 503.729004 268.913483 506.34726 265.420837 509.894897 C 265.047424 506.970428 265.015747 503.936768 265.030853 500.450806 z" stroke-linecap="round" />
</g>
<g transform="matrix(1 0 0 1 405.51 580.15)"  >
<path style="stroke: none; stroke-width: 1; stroke-dasharray: none; stroke-linecap: butt; stroke-dashoffset: 0; stroke-linejoin: miter; stroke-miterlimit: 4; fill: rgb(7,76,72); fill-rule: nonzero; opacity: 1;" vector-effect="non-scaling-stroke"  transform=" translate(-266.51, -441.15)" d="M 265.015991 436.450134 C 269.436005 438.974792 268.444458 442.287689 265.35376 445.85614 C 265.013 442.967529 264.990662 439.934967 265.015991 436.450134 z" stroke-linecap="round" />
</g>
<g transform="matrix(1 0 0 1 405.31 594.14)"  >
<path style="stroke: none; stroke-width: 1; stroke-dasharray: none; stroke-linecap: butt; stroke-dashoffset: 0; stroke-linejoin: miter; stroke-miterlimit: 4; fill: rgb(7,76,72); fill-rule: nonzero; opacity: 1;" vector-effect="non-scaling-stroke"  transform=" translate(-266.31, -455.14)" d="M 265.027191 450.447083 C 269.729889 452.926147 266.837677 456.352173 265.394501 459.831116 C 265.046631 456.966248 265.012848 453.932983 265.027191 450.447083 z" stroke-linecap="round" />
</g>
<g transform="matrix(1 0 0 1 444.53 739.86)"  >
<path style="stroke: none; stroke-width: 1; stroke-dasharray: none; stroke-linecap: butt; stroke-dashoffset: 0; stroke-linejoin: miter; stroke-miterlimit: 4; fill: rgb(7,76,72); fill-rule: nonzero; opacity: 1;" vector-effect="non-scaling-stroke"  transform=" translate(-305.52, -600.86)" d="M 302.428711 603.137451 C 301.866272 602.94281 301.61676 602.694458 301.208496 602.238159 C 302.540131 601.161987 304.030518 600.29364 305.744507 599.19397 C 306.425293 598.878723 306.882416 598.794739 308.02655 598.589966 C 309.055298 598.899841 309.397034 599.330444 309.839417 599.946899 C 309.760529 600.341858 309.572388 600.54303 309.214417 600.863892 C 308.204834 601.179321 307.356476 601.367065 306.240417 601.742554 C 305.452667 602.132751 304.932617 602.335266 304.207703 602.727783 C 303.582428 602.973022 303.162048 603.028381 302.428711 603.137451 z" stroke-linecap="round" />
</g>
<g transform="matrix(1 0 0 1 527 323.97)"  >
<path style="stroke: none; stroke-width: 1; stroke-dasharray: none; stroke-linecap: butt; stroke-dashoffset: 0; stroke-linejoin: miter; stroke-miterlimit: 4; fill: rgb(7,76,72); fill-rule: nonzero; opacity: 1;" vector-effect="non-scaling-stroke"  transform=" translate(-388.01, -184.97)" d="M 386.99649 183.996674 C 387.486084 183.742905 387.979218 183.49231 388.725891 183.13443 C 388.979401 183.027145 389.001099 183.501617 389.017517 183.738113 C 389.027283 184.693634 389.02063 185.412643 389.017944 186.490479 C 388.566742 186.894394 388.111572 186.939499 387.322449 186.565216 C 386.990417 185.428986 386.992401 184.712112 386.994385 183.995239 C 386.994385 183.995239 387 183.999863 386.99649 183.996674 z" stroke-linecap="round" />
</g>
<g transform="matrix(1 0 0 1 524.98 324.52)"  >
<path style="stroke: none; stroke-width: 1; stroke-dasharray: none; stroke-linecap: butt; stroke-dashoffset: 0; stroke-linejoin: miter; stroke-miterlimit: 4; fill: rgb(8,58,54); fill-rule: nonzero; opacity: 1;" vector-effect="non-scaling-stroke"  transform=" translate(-385.98, -185.52)" d="M 386.658203 183.997574 C 386.992401 184.712112 386.990417 185.428986 386.983948 186.502167 C 386.5448 186.907669 386.110199 186.956863 385.346741 187.036224 C 385.009705 186.305328 385.001495 185.544296 384.983826 184.405441 C 385.423615 184.018402 385.872833 184.009155 386.658203 183.997574 z" stroke-linecap="round" />
</g>
<g transform="matrix(1 0 0 1 609.61 742.64)"  >
<path style="stroke: none; stroke-width: 1; stroke-dasharray: none; stroke-linecap: butt; stroke-dashoffset: 0; stroke-linejoin: miter; stroke-miterlimit: 4; fill: rgb(8,58,54); fill-rule: nonzero; opacity: 1;" vector-effect="non-scaling-stroke"  transform=" translate(-470.61, -603.65)" d="M 470.908783 603.354187 C 470.92572 603.485352 470.722046 603.676453 470.308716 603.942871 C 470.278625 603.803101 470.475006 603.601685 470.908783 603.354187 z" stroke-linecap="round" />
</g>
</svg>